<?xml version="1.0" encoding="UTF-8"?>
<svg id="Camada_1" xmlns="http://www.w3.org/2000/svg" xmlns:xlink="http://www.w3.org/1999/xlink" viewBox="0 0 1070.38 618.51">
  <defs>
    <style>
      .cls-1 {
        fill: #f4d100;
      }

      .cls-2 {
        fill: #4084b2;
        stroke: #f1f2f2;
      }

      .cls-2, .cls-3, .cls-4, .cls-5, .cls-6 {
        stroke-width: 2.84px;
      }

      .cls-2, .cls-5 {
        stroke-linejoin: round;
      }

      .cls-2, .cls-5, .cls-6 {
        stroke-linecap: round;
      }

      .cls-7 {
        fill: #ff7300;
      }

      .cls-8 {
        stroke: #fd0303;
      }

      .cls-8, .cls-3, .cls-9, .cls-10, .cls-4, .cls-11, .cls-12, .cls-5, .cls-6 {
        fill: none;
      }

      .cls-8, .cls-10, .cls-12 {
        stroke-width: 1.42px;
      }

      .cls-13 {
        fill: #fff;
      }

      .cls-3, .cls-4, .cls-11, .cls-6 {
        stroke-miterlimit: 10;
      }

      .cls-3, .cls-11, .cls-6 {
        stroke: #fff;
      }

      .cls-14 {
        fill: #036b70;
      }

      .cls-15 {
        fill: #5b5b5b;
      }

      .cls-10 {
        stroke: red;
      }

      .cls-16 {
        fill: #ffce00;
      }

      .cls-17 {
        fill: #0f0e0e;
      }

      .cls-18 {
        fill: #fec;
      }

      .cls-19 {
        fill: #fff4bb;
      }

      .cls-4 {
        stroke: #6d6e71;
      }

      .cls-20 {
        fill: #9e0000;
      }

      .cls-11 {
        stroke-width: .57px;
      }

      .cls-21 {
        fill: #d6d6d6;
      }

      .cls-22 {
        fill: #7f7e75;
      }

      .cls-12 {
        stroke: #ff0e0e;
      }

      .cls-23 {
        fill: #a5a5a5;
      }

      .cls-5 {
        stroke: #808285;
      }

      .cls-24 {
        fill: #d1caa1;
      }

      .cls-25 {
        clip-path: url(#clippath);
      }

      .cls-26 {
        fill: #f7f7f7;
      }

      .cls-27 {
        fill: #353533;
      }

      .cls-28 {
        fill: #d1d3d4;
      }

      .cls-29 {
        fill: #b5b5b5;
      }
    </style>
    <clipPath id="clippath">
      <rect class="cls-9" x="145.54" y="151.13" width="725.45" height="403.02"/>
    </clipPath>
  </defs>
  <path class="cls-17" d="M430.58,104.71v-1.11h7.76v1.11h-3.25v9.23h-1.25v-9.23h-3.25ZM439.31,113.94v-7.75h1.15v1.17h.08c.14-.38.4-.7.77-.93.37-.24.79-.36,1.25-.36.09,0,.2,0,.33,0,.13,0,.23,0,.3.01v1.21s-.13-.03-.28-.04c-.14-.02-.29-.04-.45-.04-.38,0-.71.08-1.01.24-.29.15-.53.37-.7.65-.17.27-.25.58-.25.93v4.91h-1.19ZM444.6,113.94v-7.75h1.19v7.75h-1.19ZM445.2,104.89c-.23,0-.43-.08-.6-.24-.17-.16-.25-.35-.25-.57s.08-.41.25-.57c.17-.16.37-.24.6-.24s.43.08.6.24c.17.16.25.35.25.57s-.08.41-.25.57c-.17.16-.36.24-.6.24ZM447.97,113.94v-7.75h1.15v1.21h.1c.16-.41.42-.74.78-.96.36-.23.79-.35,1.3-.35s.94.12,1.28.35c.34.23.61.55.8.96h.08c.2-.4.5-.72.89-.95.4-.24.87-.36,1.43-.36.69,0,1.26.22,1.7.65.44.43.66,1.1.66,2.01v5.19h-1.19v-5.19c0-.57-.16-.98-.47-1.23-.31-.25-.68-.37-1.11-.37-.55,0-.97.17-1.27.49-.3.33-.45.74-.45,1.24v5.05h-1.21v-5.31c0-.44-.14-.8-.43-1.07-.29-.27-.65-.41-1.11-.41-.31,0-.6.08-.87.25-.27.16-.48.39-.65.69-.16.29-.24.62-.24,1v4.85h-1.19ZM460.33,113.94v-7.75h1.15v1.21h.1c.16-.41.42-.74.78-.96.36-.23.79-.35,1.3-.35s.94.12,1.28.35c.34.23.61.55.8.96h.08c.2-.4.5-.72.89-.95.4-.24.87-.36,1.43-.36.69,0,1.26.22,1.7.65.44.43.66,1.1.66,2.01v5.19h-1.19v-5.19c0-.57-.16-.98-.47-1.23-.31-.25-.68-.37-1.11-.37-.55,0-.97.17-1.27.49-.3.33-.45.74-.45,1.24v5.05h-1.21v-5.31c0-.44-.14-.8-.43-1.07-.29-.27-.65-.41-1.11-.41-.31,0-.6.08-.87.25-.27.16-.48.39-.65.69-.16.29-.24.62-.24,1v4.85h-1.19ZM475.94,114.1c-.75,0-1.39-.17-1.93-.5-.54-.33-.95-.8-1.25-1.39-.29-.6-.43-1.3-.43-2.09s.14-1.49.43-2.1c.29-.61.7-1.08,1.22-1.42.53-.34,1.14-.51,1.84-.51.4,0,.8.07,1.2.2.39.14.75.35,1.08.66.32.3.58.7.77,1.19.19.5.29,1.1.29,1.83v.5h-5.98v-1.03h4.77c0-.44-.09-.83-.26-1.17-.17-.34-.42-.61-.74-.81-.32-.2-.69-.3-1.12-.3-.48,0-.89.12-1.23.35-.34.23-.61.54-.79.91-.18.37-.28.77-.28,1.2v.69c0,.59.1,1.08.3,1.49.21.4.49.71.85.92.36.21.79.31,1.27.31.31,0,.6-.04.85-.13.26-.09.48-.22.66-.4.19-.18.33-.41.43-.68l1.15.32c-.12.39-.33.73-.61,1.03-.29.29-.64.52-1.06.69-.42.16-.89.24-1.42.24ZM480.96,113.94v-7.75h1.15v1.17h.08c.14-.38.4-.7.77-.93.37-.24.79-.36,1.25-.36.09,0,.2,0,.33,0,.13,0,.23,0,.3.01v1.21s-.13-.03-.28-.04c-.14-.02-.29-.04-.45-.04-.38,0-.71.08-1.01.24-.29.15-.52.37-.7.65-.17.27-.25.58-.25.93v4.91h-1.19Z"/>
  <path class="cls-17" d="M493.71,96.88v-10.34h1.25v9.23h4.81v1.11h-6.06ZM504.9,96.88h-3.19v-10.34h3.33c1,0,1.86.21,2.58.62.71.41,1.26,1,1.64,1.77.38.77.57,1.69.57,2.76s-.19,2-.58,2.78c-.38.77-.94,1.37-1.68,1.79-.73.41-1.62.62-2.68.62ZM502.96,95.77h1.86c.85,0,1.56-.17,2.12-.5s.98-.8,1.26-1.41c.28-.61.42-1.33.42-2.18s-.14-1.55-.41-2.16c-.27-.61-.68-1.07-1.22-1.39-.54-.33-1.22-.49-2.02-.49h-2v8.12ZM511.93,96.88v-10.34h3.49c.81,0,1.47.14,1.99.41.52.27.9.65,1.15,1.13.25.48.37,1.02.37,1.63s-.12,1.15-.37,1.62c-.25.47-.63.84-1.15,1.11-.52.27-1.17.4-1.97.4h-2.83v-1.13h2.79c.55,0,1-.08,1.33-.24.34-.16.59-.39.74-.69.16-.3.23-.66.23-1.07s-.08-.78-.23-1.09c-.15-.31-.4-.55-.74-.72-.34-.17-.79-.26-1.35-.26h-2.2v9.23h-1.25ZM516.79,92.23l2.54,4.65h-1.46l-2.5-4.65h1.41Z"/>
  <path class="cls-17" d="M522.14,116.78v-10.34h1.25v9.23h4.81v1.11h-6.06ZM530.14,106.44h1.49l3.51,8.58h.12l3.51-8.58h1.49v10.34h-1.17v-7.86h-.1l-3.23,7.86h-1.13l-3.23-7.86h-.1v7.86h-1.17v-10.34ZM546.1,116.93c-.67,0-1.26-.11-1.78-.34-.52-.23-.93-.55-1.24-.95-.3-.41-.47-.89-.49-1.43h1.27c.03.33.14.62.34.86.2.24.47.42.79.56.33.13.69.2,1.09.2.45,0,.84-.08,1.18-.23.34-.15.61-.37.81-.65.2-.28.29-.6.29-.96,0-.38-.09-.72-.28-1-.19-.29-.47-.52-.83-.69-.36-.17-.81-.25-1.33-.25h-.83v-1.11h.83c.41,0,.77-.07,1.08-.22.31-.15.56-.36.73-.63.18-.27.27-.59.27-.95s-.08-.65-.23-.91c-.16-.26-.37-.46-.66-.61-.28-.15-.61-.22-.99-.22-.36,0-.69.07-1.01.2-.31.13-.57.32-.77.56-.2.24-.31.54-.32.88h-1.21c.02-.54.18-1.02.49-1.42.31-.41.71-.73,1.2-.96.5-.23,1.04-.34,1.64-.34.64,0,1.19.13,1.65.39.46.26.81.59,1.05,1.01.25.42.37.88.37,1.36,0,.58-.15,1.08-.46,1.49-.3.41-.72.69-1.24.85v.08c.65.11,1.16.39,1.53.83.37.44.55.99.55,1.65,0,.56-.15,1.07-.46,1.51-.3.44-.72.79-1.24,1.05-.53.25-1.12.38-1.79.38ZM554.89,116.93c-.59,0-1.13-.12-1.6-.35-.47-.24-.86-.56-1.14-.97-.29-.41-.44-.88-.47-1.4h1.21c.05.47.26.85.64,1.16.38.3.83.45,1.36.45.42,0,.8-.1,1.13-.3.33-.2.59-.47.78-.82.19-.35.29-.75.29-1.19s-.1-.85-.3-1.21c-.2-.36-.46-.64-.81-.84-.34-.21-.73-.31-1.18-.31-.32,0-.64.05-.97.15-.33.1-.61.22-.82.38l-1.17-.14.63-5.09h5.37v1.11h-4.32l-.36,3.05h.06c.21-.17.48-.31.8-.42s.65-.17,1-.17c.63,0,1.2.15,1.69.46.5.3.89.71,1.17,1.23.29.52.43,1.12.43,1.79s-.15,1.25-.45,1.77c-.29.51-.7.92-1.21,1.22-.52.3-1.1.44-1.76.44Z"/>
  <g class="cls-25">
    <g>
      <path class="cls-14" d="M870.99,148.28H145.54v403.02h725.45V148.28Z"/>
      <path class="cls-26" d="M662.36,257.59c27.29,0,49.42-22.13,49.42-49.42s-22.13-49.42-49.42-49.42-49.42,22.13-49.42,49.42,22.13,49.42,49.42,49.42Z"/>
      <path d="M662.67,252.39c24.22,0,43.85-19.63,43.85-43.85s-19.63-43.85-43.85-43.85-43.85,19.63-43.85,43.85,19.63,43.85,43.85,43.85Z"/>
      <path class="cls-7" d="M662.67,219.2c5.89,0,10.66-4.77,10.66-10.66s-4.77-10.66-10.66-10.66-10.66,4.77-10.66,10.66,4.77,10.66,10.66,10.66Z"/>
      <path d="M744.97,169.01h-12.54v6.26h12.54v-6.26Z"/>
      <path class="cls-13" d="M732.43,169.01h-6.43v6.26h6.43v-6.26Z"/>
      <path class="cls-13" d="M751.39,169.01h-6.43v6.26h6.43v-6.26Z"/>
      <path class="cls-11" d="M753.75,166.31h-30.71v11.4h30.71v-11.4Z"/>
      <path d="M783.58,169.13h-12.54v6.26h12.54v-6.26Z"/>
      <path class="cls-13" d="M771.04,169.13h-6.43v6.26h6.43v-6.26Z"/>
      <path class="cls-13" d="M790.01,169.13h-6.43v6.26h6.43v-6.26Z"/>
      <path class="cls-11" d="M792.37,166.42h-30.71v11.4h30.71v-11.4Z"/>
      <path d="M783.89,186.47h-12.54v6.26h12.54v-6.26Z"/>
      <path class="cls-13" d="M771.33,186.47h-6.43v6.26h6.43v-6.26Z"/>
      <path class="cls-13" d="M790.29,186.47h-6.43v6.26h6.43v-6.26Z"/>
      <path class="cls-11" d="M792.65,183.77h-30.71v11.4h30.71v-11.4Z"/>
      <path d="M777.33,314.26h-11.29v5.63h11.29v-5.63Z"/>
      <path class="cls-13" d="M766.04,314.26h-5.8v5.63h5.8v-5.63Z"/>
      <path class="cls-13" d="M783.13,314.26h-5.8v5.63h5.8v-5.63Z"/>
      <path class="cls-11" d="M785.23,311.82h-27.64v10.27h27.64v-10.27Z"/>
      <path d="M777.58,329.84h-11.29v5.63h11.29v-5.63Z"/>
      <path class="cls-13" d="M766.32,329.84h-5.8v5.63h5.8v-5.63Z"/>
      <path class="cls-13" d="M783.38,329.84h-5.8v5.63h5.8v-5.63Z"/>
      <path class="cls-11" d="M785.49,327.43h-27.64v10.26h27.64v-10.26Z"/>
      <path d="M765.64,239.82h-5.63v11.29h5.63v-11.29Z"/>
      <path class="cls-13" d="M765.61,251.08h-5.63v5.8h5.63v-5.8Z"/>
      <path class="cls-13" d="M765.64,234.02h-5.63v5.8h5.63v-5.8Z"/>
      <path class="cls-11" d="M767.83,231.94h-10.26v27.64h10.26v-27.64Z"/>
      <path d="M765.75,281.36h-5.63v11.29h5.63v-11.29Z"/>
      <path class="cls-13" d="M765.72,292.65h-5.63v5.8h5.63v-5.8Z"/>
      <path class="cls-13" d="M765.75,275.56h-5.63v5.8h5.63v-5.8Z"/>
      <path class="cls-11" d="M767.94,273.48h-10.27v27.64h10.27v-27.64Z"/>
      <path d="M769.11,412.71h-5.63v11.29h5.63v-11.29Z"/>
      <path class="cls-13" d="M769.14,423.97h-5.63v5.8h5.63v-5.8Z"/>
      <path class="cls-13" d="M769.14,406.91h-5.63v5.8h5.63v-5.8Z"/>
      <path class="cls-11" d="M771.33,404.77h-10.27v27.64h10.27v-27.64Z"/>
      <path d="M685.85,485.67h-5.63v11.29h5.63v-11.29Z"/>
      <path class="cls-13" d="M685.85,496.96h-5.63v5.8h5.63v-5.8Z"/>
      <path class="cls-13" d="M685.88,479.87h-5.63v5.8h5.63v-5.8Z"/>
      <path class="cls-11" d="M688.07,477.8h-10.27v27.64h10.27v-27.64Z"/>
      <path d="M707.06,519.97h-5.63v11.29h5.63v-11.29Z"/>
      <path class="cls-13" d="M707.03,531.25h-5.63v5.8h5.63v-5.8Z"/>
      <path class="cls-13" d="M707.06,514.17h-5.63v5.8h5.63v-5.8Z"/>
      <path class="cls-11" d="M709.25,512.09h-10.26v27.64h10.26v-27.64Z"/>
      <path class="cls-1" d="M685.85,519.71h-5.63v11.29h5.63v-11.29Z"/>
      <path class="cls-13" d="M685.88,530.97h-5.63v5.8h5.63v-5.8Z"/>
      <path class="cls-13" d="M685.85,513.88h-5.63v5.8h5.63v-5.8Z"/>
      <path class="cls-11" d="M688.04,511.8h-10.27v27.64h10.27v-27.64Z"/>
      <path class="cls-23" d="M856.38,244.68h-54.26v24.43h54.26v-24.43Z"/>
      <path d="M839.71,250.2h-20.9v13.42h20.9v-13.42Z"/>
      <path class="cls-13" d="M812.16,249.63h-5.77v14.56h5.77v-14.56Z"/>
      <path class="cls-13" d="M852.08,249.63h-5.77v14.56h5.77v-14.56Z"/>
      <path class="cls-13" d="M853.7,165.37h-27.84c-1.43,0-2.59,1.16-2.59,2.59v46.18c0,1.43,1.16,2.59,2.59,2.59h27.84c1.43,0,2.59-1.16,2.59-2.59v-46.18c0-1.43-1.16-2.59-2.59-2.59Z"/>
      <path class="cls-23" d="M851.71,169.61h-14.87c-.58,0-1.05.47-1.05,1.05v5.54c0,.58.47,1.05,1.05,1.05h14.87c.58,0,1.05-.47,1.05-1.05v-5.54c0-.58-.47-1.05-1.05-1.05Z"/>
      <path class="cls-13" d="M838.92,171.17h-1.79v4.55h1.79v-4.55Z"/>
      <path class="cls-13" d="M851.43,171.17h-1.79v4.55h1.79v-4.55Z"/>
      <path class="cls-23" d="M851.74,204.93h-14.87c-.58,0-1.05.47-1.05,1.05v5.55c0,.58.47,1.05,1.05,1.05h14.87c.58,0,1.05-.47,1.05-1.05v-5.55c0-.58-.47-1.05-1.05-1.05Z"/>
      <path class="cls-13" d="M838.92,206.49h-1.79v4.55h1.79v-4.55Z"/>
      <path class="cls-13" d="M851.43,206.49h-1.79v4.55h1.79v-4.55Z"/>
      <path class="cls-23" d="M859.62,437.84h-54.26v24.43h54.26v-24.43Z"/>
      <path d="M842.93,443.33h-20.9v13.42h20.9v-13.42Z"/>
      <path class="cls-13" d="M815.4,442.79h-5.77v14.56h5.77v-14.56Z"/>
      <path class="cls-13" d="M855.3,442.79h-5.77v14.56h5.77v-14.56Z"/>
      <path class="cls-23" d="M740.84,284.06h-92.9v83.66h92.9v-83.66Z"/>
      <path d="M731.15,305.36h-75.21v52.15h75.21v-52.15Z"/>
      <path class="cls-13" d="M655.93,305.36v-8.56l14.22-4.58h48.06l12.94,5.2v7.93h-75.21Z"/>
      <path class="cls-13" d="M670.83,357.54h-5.06v20.87h5.06v-20.87Z"/>
      <path class="cls-13" d="M719.91,357.54h-5.06v20.87h5.06v-20.87Z"/>
      <path class="cls-13" d="M674.25,378.3h-11.89v21.64h11.89v-21.64Z"/>
      <path class="cls-21" d="M672.65,381.2h-8.7v15.87h8.7v-15.87Z"/>
      <path class="cls-13" d="M723.33,378.3h-11.89v21.64h11.89v-21.64Z"/>
      <path class="cls-21" d="M721.73,381.2h-8.7v15.87h8.7v-15.87Z"/>
      <path class="cls-13" d="M696.03,357.09h-6.48v15.13h6.48v-15.13Z"/>
      <path d="M612.06,261.71h-129.92v64.69h129.92v-64.69Z"/>
      <path class="cls-22" d="M612.06,308.29h-129.92v141.78h129.92v-141.78Z"/>
      <path class="cls-24" d="M612.09,308.29h-122.05v133.73h122.05v-133.73Z"/>
      <path class="cls-19" d="M475.88,381.63h-6.31v5.49h6.31v-5.49Z"/>
      <path class="cls-19" d="M475.88,391.92h-6.31v5.49h6.31v-5.49Z"/>
      <path class="cls-19" d="M475.88,402.27h-6.31v5.49h6.31v-5.49Z"/>
      <path class="cls-19" d="M475.88,412.56h-6.31v5.49h6.31v-5.49Z"/>
      <path class="cls-19" d="M475.88,423.45h-6.31v5.49h6.31v-5.49Z"/>
      <path class="cls-19" d="M475.88,433.75h-6.31v5.49h6.31v-5.49Z"/>
      <path class="cls-19" d="M475.88,443.39h-6.31v5.49h6.31v-5.49Z"/>
      <path class="cls-19" d="M475.88,308.35h-6.31v5.49h6.31v-5.49Z"/>
      <path class="cls-19" d="M475.88,318.64h-6.31v5.49h6.31v-5.49Z"/>
      <path class="cls-19" d="M475.88,328.96h-6.31v5.49h6.31v-5.49Z"/>
      <path class="cls-19" d="M475.88,339.26h-6.31v5.49h6.31v-5.49Z"/>
      <path class="cls-19" d="M475.88,350.15h-6.31v5.49h6.31v-5.49Z"/>
      <path class="cls-19" d="M475.88,360.44h-6.31v5.49h6.31v-5.49Z"/>
      <path class="cls-19" d="M475.88,370.08h-6.31v5.49h6.31v-5.49Z"/>
      <path class="cls-19" d="M623.69,382.19h-6.31v5.49h6.31v-5.49Z"/>
      <path class="cls-19" d="M623.69,392.49h-6.31v5.49h6.31v-5.49Z"/>
      <path class="cls-19" d="M623.69,402.84h-6.31v5.49h6.31v-5.49Z"/>
      <path class="cls-19" d="M623.69,413.13h-6.31v5.49h6.31v-5.49Z"/>
      <path class="cls-19" d="M623.69,424.02h-6.31v5.49h6.31v-5.49Z"/>
      <path class="cls-19" d="M623.69,434.32h-6.31v5.49h6.31v-5.49Z"/>
      <path class="cls-19" d="M623.69,443.96h-6.31v5.49h6.31v-5.49Z"/>
      <path class="cls-19" d="M500.56,454.11h-5.69v6.06h5.69v-6.06Z"/>
      <path class="cls-19" d="M511.25,454.08h-5.69v6.06h5.69v-6.06Z"/>
      <path class="cls-19" d="M522,454.08h-5.69v6.06h5.69v-6.06Z"/>
      <path class="cls-19" d="M532.69,454.08h-5.69v6.06h5.69v-6.06Z"/>
      <path class="cls-19" d="M544.01,454.08h-5.69v6.06h5.69v-6.06Z"/>
      <path class="cls-19" d="M554.7,454.11h-5.69v6.06h5.69v-6.06Z"/>
      <path class="cls-19" d="M564.68,454.11h-5.69v6.06h5.69v-6.06Z"/>
      <path class="cls-19" d="M575.18,454.08h-5.69v6.06h5.69v-6.06Z"/>
      <path class="cls-19" d="M585.87,454.08h-5.69v6.06h5.69v-6.06Z"/>
      <path class="cls-19" d="M595.88,454.08h-5.69v6.06h5.69v-6.06Z"/>
      <path class="cls-19" d="M623.69,308.92h-6.31v5.49h6.31v-5.49Z"/>
      <path class="cls-19" d="M623.69,319.21h-6.31v5.49h6.31v-5.49Z"/>
      <path class="cls-19" d="M623.69,329.53h-6.31v5.49h6.31v-5.49Z"/>
      <path class="cls-19" d="M623.69,339.83h-6.31v5.49h6.31v-5.49Z"/>
      <path class="cls-19" d="M623.69,350.72h-6.31v5.49h6.31v-5.49Z"/>
      <path class="cls-19" d="M623.69,361.01h-6.31v5.49h6.31v-5.49Z"/>
      <path class="cls-19" d="M623.69,370.65h-6.31v5.49h6.31v-5.49Z"/>
      <path class="cls-4" d="M500.82,297.43v-24.94h15.07v14.73l12.51.2v-14.93h15.61v15.18l13.31.23v-15.41h19.02v27.78"/>
      <path class="cls-4" d="M577.62,272.49h15.53v27.78"/>
      <path d="M319.03,421.81h-7.14v14.3h7.14v-14.3Z"/>
      <path class="cls-13" d="M319.03,436.11h-7.14v7.34h7.14v-7.34Z"/>
      <path class="cls-13" d="M319.03,414.47h-7.14v7.34h7.14v-7.34Z"/>
      <path class="cls-11" d="M321.84,411.8h-13.02v35.03h13.02v-35.03Z"/>
      <path d="M340.38,421.81h-7.14v14.3h7.14v-14.3Z"/>
      <path class="cls-13" d="M340.41,436.11h-7.14v7.34h7.14v-7.34Z"/>
      <path class="cls-13" d="M340.38,414.47h-7.14v7.34h7.14v-7.34Z"/>
      <path class="cls-11" d="M343.2,411.77h-13.02v35.03h13.02v-35.03Z"/>
      <path d="M361.25,421.46h-7.14v14.3h7.14v-14.3Z"/>
      <path class="cls-13" d="M361.25,435.77h-7.14v7.34h7.14v-7.34Z"/>
      <path class="cls-13" d="M361.25,414.13h-7.14v7.34h7.14v-7.34Z"/>
      <path class="cls-11" d="M364.07,411.45h-13.02v35.03h13.02v-35.03Z"/>
      <path class="cls-1" d="M319.17,464.35h-7.14v14.3h7.14v-14.3Z"/>
      <path class="cls-13" d="M319.2,478.65h-7.14v7.34h7.14v-7.34Z"/>
      <path class="cls-13" d="M319.17,457.01h-7.14v7.34h7.14v-7.34Z"/>
      <path class="cls-11" d="M321.98,454.34h-13.02v35.03h13.02v-35.03Z"/>
      <path class="cls-1" d="M340.38,464.35h-7.14v14.3h7.14v-14.3Z"/>
      <path class="cls-13" d="M340.41,478.65h-7.14v7.34h7.14v-7.34Z"/>
      <path class="cls-13" d="M340.38,456.98h-7.14v7.34h7.14v-7.34Z"/>
      <path class="cls-11" d="M343.2,454.31h-13.02v35.03h13.02v-35.03Z"/>
      <path class="cls-1" d="M361.4,464.35h-7.14v14.3h7.14v-14.3Z"/>
      <path class="cls-13" d="M361.42,478.65h-7.14v7.34h7.14v-7.34Z"/>
      <path class="cls-13" d="M361.4,457.01h-7.14v7.34h7.14v-7.34Z"/>
      <path class="cls-11" d="M364.21,454.34h-13.02v35.03h13.02v-35.03Z"/>
      <path d="M599.77,179.65h-5.63v11.29h5.63v-11.29Z"/>
      <path class="cls-13" d="M599.8,190.91h-5.63v5.8h5.63v-5.8Z"/>
      <path class="cls-13" d="M599.8,173.85h-5.63v5.8h5.63v-5.8Z"/>
      <path class="cls-11" d="M601.99,171.71h-10.27v27.64h10.27v-27.64Z"/>
      <path d="M557.32,222.67h-7.14v14.3h7.14v-14.3Z"/>
      <path class="cls-13" d="M557.35,236.97h-7.14v7.34h7.14v-7.34Z"/>
      <path class="cls-13" d="M557.32,215.33h-7.14v7.34h7.14v-7.34Z"/>
      <path class="cls-11" d="M560.11,212.66h-13v35h13v-35Z"/>
      <path class="cls-13" d="M589.91,252.81c9.88,0,17.89-8.24,17.89-18.4s-8.01-18.4-17.89-18.4-17.89,8.24-17.89,18.4,8.01,18.4,17.89,18.4Z"/>
      <path class="cls-20" d="M575.66,239.65l-.91-9.98c0-.85-.06-1.68.11-2.56.26-1.54,2.42-1.96,3.44-.97.37.37.48.88.57,1.31.46,5.03-.28,10.04-.28,14.99-.11,1.76,1.45,2.65,2.76,1.65,1.17-3.27-1.05-8.3-.94-12.06,0-.85.2-1.88.91-2.53.65-.77,2.02-.8,2.7-.06,1.42,1.22.82,3.44.77,5.06,0,1.56-.54,3.61.94,4.12,2.05.51,1.73-1.62,1.65-3.01l-.14-2.5c0-.82-.2-1.71.37-2.67.68-.85,1.85-1.02,2.76-.46,1.73,1.34-.77,10.69,2.99,8.53.43-.6-.28-5.23-.26-6l-.11-2.56c0-.88.06-2.05.94-2.53.82-.48,1.93-.6,2.76.08,1.79,2.16.71,5.12.77,7.56-.17,2.45-.06,4.98.11,7.45.09.77.2,1.68.74,1.91.54.28,1.51.06,1.68-.48.65-3.95-.11-8.25-.26-12.28-.09-2.1-1.28-6.88,2.45-6.26,1.02.11,1.51,1.28,1.45,2.19,0,1.73-.26,3.33-.14,5,.11,3.33.2,6.65.37,9.98-.29-3.33-.48-6.65-.71-9.98-.14-1.65,0-3.38,0-5,0-.85-.28-1.54-1.02-1.59-.68-.11-1.56.2-1.73.74-.26,4.78.71,9.98.65,14.84.11,1.9-.48,4.41-2.96,3.44-1.62-1.14-1.05-3.36-1.28-5.01-.26-3.3.28-6.74.23-9.98-.09-.77-.26-1.59-.74-2.05-.46-.43-1.34-.37-1.91,0-1.05.62-.43,3.33-.48,4.41l.43,5.01c.28,2.81-3.33,2.64-3.67.26-.43-2.3.2-5.18-.63-7.17-1.91-.8-2.13.94-1.99,2.5,0,2.1,1.34,7.14-2.45,6.2-3.41-1.56.2-7.08-1.93-9.3-1.36-1.19-2.59.71-2.45,2.08-.43,2.93,4.35,14.99-2.02,12.88-.99-.48-1.17-1.65-1.19-2.45,0-4.21.57-8.33.43-12.51-.06-1.54.43-3.78-1.31-3.84-1.99-.17-1.82,2.08-1.85,3.5l.54,9.98-.14.11Z"/>
      <path d="M655.02,475.46h-45.16v36.11h45.16v-36.11Z"/>
      <path class="cls-13" d="M609.84,511.58h-7.39l-3.98-6.83v-23.09l4.52-6.23h6.85v36.14Z"/>
      <path d="M785.23,343.64h-27.67v34.61h27.67v-34.61Z"/>
      <path class="cls-13" d="M785.23,378.24v5.69l-5.23,3.04h-17.66l-4.78-3.47v-5.26h27.67Z"/>
      <path d="M336.88,169.95h-65.37v21.9h65.37v-21.9Z"/>
      <path class="cls-15" d="M290.36,174.73h-13.68v12.31h13.68v-12.31Z"/>
      <path class="cls-15" d="M311.32,174.73h-13.68v12.31h13.68v-12.31Z"/>
      <path class="cls-15" d="M331.37,174.73h-13.68v12.31h13.68v-12.31Z"/>
      <path class="cls-27" d="M290.36,174.73h-11.97v10.44h11.97v-10.44Z"/>
      <path class="cls-27" d="M311.32,174.73h-11.97v10.44h11.97v-10.44Z"/>
      <path class="cls-27" d="M331.37,174.73h-11.97v10.44h11.97v-10.44Z"/>
      <path d="M415.37,517.61h-65.06v21.78h65.06v-21.78Z"/>
      <path class="cls-15" d="M369.07,522.38h-13.62v12.26h13.62v-12.26Z"/>
      <path class="cls-16" d="M364.95,525.91h-5.97v5.2h5.97v-5.2Z"/>
      <path class="cls-15" d="M389.21,522.38h-13.62v12.26h13.62v-12.26Z"/>
      <path class="cls-16" d="M385.08,525.91h-5.97v5.2h5.97v-5.2Z"/>
      <path class="cls-15" d="M409.68,522.38h-13.62v12.26h13.62v-12.26Z"/>
      <path class="cls-16" d="M405.53,525.91h-5.97v5.2h5.97v-5.2Z"/>
      <path d="M496.89,517.61h-65.06v21.78h65.06v-21.78Z"/>
      <path class="cls-15" d="M450.6,522.38h-13.62v12.26h13.62v-12.26Z"/>
      <path class="cls-16" d="M446.48,525.91h-5.97v5.2h5.97v-5.2Z"/>
      <path class="cls-15" d="M470.73,522.38h-13.62v12.26h13.62v-12.26Z"/>
      <path class="cls-16" d="M466.58,525.91h-5.97v5.2h5.97v-5.2Z"/>
      <path class="cls-15" d="M491.18,522.38h-13.62v12.26h13.62v-12.26Z"/>
      <path class="cls-16" d="M487.05,525.91h-5.97v5.2h5.97v-5.2Z"/>
      <path d="M531.81,475.46h-21.78v65.06h21.78v-65.06Z"/>
      <path class="cls-15" d="M527.03,521.76h-12.26v13.62h12.26v-13.62Z"/>
      <path class="cls-16" d="M523.51,525.88h-5.2v5.97h5.2v-5.97Z"/>
      <path class="cls-15" d="M527.03,501.62h-12.26v13.62h12.26v-13.62Z"/>
      <path class="cls-16" d="M523.51,505.75h-5.2v5.97h5.2v-5.97Z"/>
      <path class="cls-15" d="M527.03,481.18h-12.26v13.62h12.26v-13.62Z"/>
      <path class="cls-16" d="M523.54,485.27h-5.2v5.97h5.2v-5.97Z"/>
      <path d="M496.44,486.21h-65.06v21.78h65.06v-21.78Z"/>
      <path class="cls-15" d="M450.14,490.96h-13.62v12.26h13.62v-12.26Z"/>
      <path class="cls-16" d="M446.02,494.49h-5.97v5.2h5.97v-5.2Z"/>
      <path class="cls-15" d="M470.28,490.96h-13.62v12.26h13.62v-12.26Z"/>
      <path class="cls-16" d="M466.12,494.49h-5.97v5.2h5.97v-5.2Z"/>
      <path class="cls-15" d="M490.72,490.96h-13.62v12.26h13.62v-12.26Z"/>
      <path class="cls-16" d="M486.6,494.49h-5.97v5.2h5.97v-5.2Z"/>
      <path d="M503.01,169.86h-60.26v20.16h60.26v-20.16Z"/>
      <path class="cls-15" d="M460.12,174.27h-12.6v11.35h12.6v-11.35Z"/>
      <path class="cls-16" d="M456.29,177.54h-5.52v4.81h5.52v-4.81Z"/>
      <path class="cls-15" d="M478.75,174.27h-12.6v11.35h12.6v-11.35Z"/>
      <path class="cls-16" d="M474.94,177.54h-5.52v4.81h5.52v-4.81Z"/>
      <path class="cls-15" d="M497.69,174.27h-12.6v11.35h12.6v-11.35Z"/>
      <path class="cls-16" d="M493.88,177.54h-5.52v4.81h5.52v-4.81Z"/>
      <path d="M336.83,517.55h-66.51v22.27h66.51v-22.27Z"/>
      <path class="cls-15" d="M289.48,522.41h-13.9v12.54h13.9v-12.54Z"/>
      <path class="cls-15" d="M310.81,522.41h-13.9v12.54h13.9v-12.54Z"/>
      <path class="cls-15" d="M331.2,522.41h-13.9v12.54h13.9v-12.54Z"/>
      <path class="cls-27" d="M289.48,522.41h-12.17v10.61h12.17v-10.61Z"/>
      <path class="cls-27" d="M310.78,522.41h-12.17v10.61h12.17v-10.61Z"/>
      <path class="cls-27" d="M331.2,522.41h-12.17v10.61h12.17v-10.61Z"/>
      <path d="M610.46,519.74h-60.23v20.16h60.23v-20.16Z"/>
      <path class="cls-15" d="M567.61,524.15h-12.6v11.35h12.6v-11.35Z"/>
      <path class="cls-15" d="M586.92,524.15h-12.6v11.35h12.6v-11.35Z"/>
      <path class="cls-15" d="M605.37,524.15h-12.6v11.35h12.6v-11.35Z"/>
      <path class="cls-27" d="M567.61,524.15h-11.03v9.61h11.03v-9.61Z"/>
      <path class="cls-27" d="M586.92,524.15h-11.03v9.61h11.03v-9.61Z"/>
      <path class="cls-27" d="M605.37,524.15h-11.03v9.61h11.03v-9.61Z"/>
      <path d="M668.02,519.74h-60.23v20.16h60.23v-20.16Z"/>
      <path class="cls-15" d="M625.14,524.15h-12.6v11.35h12.6v-11.35Z"/>
      <path class="cls-15" d="M644.45,524.15h-12.6v11.35h12.6v-11.35Z"/>
      <path class="cls-15" d="M662.9,524.15h-12.6v11.35h12.6v-11.35Z"/>
      <path class="cls-27" d="M625.14,524.15h-11.03v9.61h11.03v-9.61Z"/>
      <path class="cls-27" d="M644.45,524.15h-11.03v9.61h11.03v-9.61Z"/>
      <path class="cls-27" d="M662.9,524.15h-11.03v9.61h11.03v-9.61Z"/>
      <path d="M430.35,169.95h-86.87v21.9h86.87v-21.9Z"/>
      <path class="cls-15" d="M362.33,174.73h-13.68v12.31h13.68v-12.31Z"/>
      <path class="cls-15" d="M383.29,174.73h-13.68v12.31h13.68v-12.31Z"/>
      <path class="cls-15" d="M403.34,174.73h-13.68v12.31h13.68v-12.31Z"/>
      <path class="cls-27" d="M362.33,174.73h-11.97v10.44h11.97v-10.44Z"/>
      <path class="cls-27" d="M383.29,174.73h-11.97v10.44h11.97v-10.44Z"/>
      <path class="cls-27" d="M403.34,174.73h-11.97v10.44h11.97v-10.44Z"/>
      <path class="cls-15" d="M424.07,174.73h-13.68v12.31h13.68v-12.31Z"/>
      <path class="cls-27" d="M424.07,174.73h-11.97v10.44h11.97v-10.44Z"/>
      <path d="M430.35,202.4h-86.87v21.89h86.87v-21.89Z"/>
      <path class="cls-15" d="M362.33,207.17h-13.68v12.31h13.68v-12.31Z"/>
      <path class="cls-15" d="M383.29,207.17h-13.68v12.31h13.68v-12.31Z"/>
      <path class="cls-15" d="M403.34,207.17h-13.68v12.31h13.68v-12.31Z"/>
      <path class="cls-27" d="M362.33,207.17h-11.97v10.44h11.97v-10.44Z"/>
      <path class="cls-27" d="M383.29,207.17h-11.97v10.44h11.97v-10.44Z"/>
      <path class="cls-27" d="M403.34,207.17h-11.97v10.44h11.97v-10.44Z"/>
      <path class="cls-15" d="M424.07,207.17h-13.68v12.31h13.68v-12.31Z"/>
      <path class="cls-27" d="M424.07,207.17h-11.97v10.44h11.97v-10.44Z"/>
      <path d="M191.38,292.45h-25.76v102.34h25.76v-102.34Z"/>
      <path class="cls-15" d="M185.75,372.61h-14.5v16.1h14.5v-16.1Z"/>
      <path class="cls-15" d="M185.75,347.93h-14.5v16.1h14.5v-16.1Z"/>
      <path class="cls-15" d="M185.75,324.33h-14.5v16.1h14.5v-16.1Z"/>
      <path class="cls-27" d="M185.72,372.58h-12.28v14.1h12.28v-14.1Z"/>
      <path class="cls-27" d="M185.75,347.93h-12.28v14.1h12.28v-14.1Z"/>
      <path class="cls-27" d="M185.72,324.3h-12.28v14.1h12.28v-14.1Z"/>
      <path class="cls-15" d="M185.75,299.9h-14.5v16.09h14.5v-16.09Z"/>
      <path class="cls-27" d="M185.75,299.9h-12.28v14.1h12.28v-14.1Z"/>
      <path class="cls-2" d="M265.08,168.13h-98.1v68.05h98.1v-68.05Z"/>
      <path d="M207.16,217.55h-27.18v8.45h27.18v-8.45Z"/>
      <path d="M250.16,217.55h-27.19v8.45h27.19v-8.45Z"/>
      <path class="cls-29" d="M237.44,196.11c-5.12,0-9.3-3.98-9.3-8.9s4.18-8.9,9.3-8.9,9.3,3.98,9.3,8.9-4.18,8.9-9.3,8.9Z"/>
      <path class="cls-29" d="M237.44,179.76c4.35,0,7.88,3.35,7.88,7.48s-3.53,7.48-7.88,7.48-7.88-3.36-7.88-7.48,3.53-7.48,7.88-7.48ZM237.44,176.92c-5.91,0-10.72,4.61-10.72,10.32s4.81,10.32,10.72,10.32,10.72-4.61,10.72-10.32-4.81-10.32-10.72-10.32Z"/>
      <path class="cls-5" d="M232.7,180.95l8.22,12.74"/>
      <path class="cls-5" d="M229.91,191.02l12.54-8.53"/>
      <path class="cls-29" d="M193.57,196.22c5.14,0,9.3-3.99,9.3-8.9s-4.16-8.9-9.3-8.9-9.3,3.98-9.3,8.9,4.16,8.9,9.3,8.9Z"/>
      <path class="cls-29" d="M193.57,179.85c4.35,0,7.88,3.35,7.88,7.48s-3.53,7.48-7.88,7.48-7.88-3.36-7.88-7.48,3.53-7.48,7.88-7.48ZM193.57,177c-5.91,0-10.72,4.61-10.72,10.32s4.81,10.32,10.72,10.32,10.72-4.61,10.72-10.32-4.81-10.32-10.72-10.32Z"/>
      <path class="cls-5" d="M188.82,181.07l8.22,12.71"/>
      <path class="cls-5" d="M186.03,191.11l12.54-8.5"/>
      <path class="cls-2" d="M259.25,471.31h-96v66.57h96v-66.57Z"/>
      <path d="M202.58,481.29h-26.62v8.25h26.62v-8.25Z"/>
      <path d="M244.64,481.29h-26.62v8.25h26.62v-8.25Z"/>
      <path class="cls-29" d="M232.21,527.9c5.01,0,9.07-3.88,9.07-8.67s-4.06-8.67-9.07-8.67-9.07,3.88-9.07,8.67,4.06,8.67,9.07,8.67Z"/>
      <path class="cls-29" d="M232.21,511.98c4.21,0,7.65,3.24,7.65,7.25s-3.44,7.25-7.65,7.25-7.65-3.24-7.65-7.25,3.44-7.25,7.65-7.25ZM232.21,509.13c-5.8,0-10.49,4.52-10.49,10.09s4.69,10.1,10.49,10.1,10.49-4.52,10.49-10.1-4.69-10.09-10.49-10.09Z"/>
      <path class="cls-5" d="M227.55,525.37l8.05-12.46"/>
      <path class="cls-5" d="M224.82,515.53l12.28,8.33"/>
      <path class="cls-29" d="M189.27,527.81c5.01,0,9.07-3.88,9.07-8.67s-4.06-8.67-9.07-8.67-9.07,3.88-9.07,8.67,4.06,8.67,9.07,8.67Z"/>
      <path class="cls-29" d="M189.27,511.89c4.21,0,7.65,3.24,7.65,7.25s-3.44,7.25-7.65,7.25-7.65-3.24-7.65-7.25,3.44-7.25,7.65-7.25ZM189.27,509.05c-5.8,0-10.49,4.52-10.49,10.1s4.69,10.09,10.49,10.09,10.49-4.52,10.49-10.09-4.69-10.1-10.49-10.1Z"/>
      <path class="cls-5" d="M184.61,525.25l8.05-12.45"/>
      <path class="cls-5" d="M181.91,515.42l12.26,8.33"/>
      <path d="M747.61,201.29h-16.81v16.81h16.81v-16.81Z"/>
      <path class="cls-13" d="M533.77,212.38h-37.79v37.79h37.79v-37.79Z"/>
      <path class="cls-28" d="M514.89,243.57c7.15,0,12.94-5.79,12.94-12.94s-5.79-12.94-12.94-12.94-12.94,5.79-12.94,12.94,5.79,12.94,12.94,12.94Z"/>
      <path class="cls-6" d="M514.89,220.79v19.45"/>
      <path class="cls-6" d="M504.85,230.52h20.05"/>
      <path d="M567.98,167.13h-22.83v32.79h22.83v-32.79Z"/>
      <path class="cls-3" d="M567.98,172.25h12.03"/>
      <path class="cls-3" d="M567.98,179.25h12.03"/>
      <path class="cls-3" d="M567.98,186.78h12.03"/>
      <path class="cls-3" d="M567.98,193.81h12.03"/>
      <path class="cls-3" d="M533.18,172.57h11.97"/>
      <path class="cls-3" d="M533.18,179.59h11.97"/>
      <path class="cls-3" d="M533.18,187.1h11.97"/>
      <path class="cls-3" d="M533.18,194.12h11.97"/>
      <path class="cls-13" d="M178.04,277.04c7.02,0,12.71-5.69,12.71-12.71s-5.69-12.71-12.71-12.71-12.71,5.69-12.71,12.71,5.69,12.71,12.71,12.71Z"/>
      <path class="cls-13" d="M178.04,443.5c7.02,0,12.71-5.69,12.71-12.71s-5.69-12.71-12.71-12.71-12.71,5.69-12.71,12.71,5.69,12.71,12.71,12.71Z"/>
      <path class="cls-13" d="M832.49,362.86c7.02,0,12.71-5.69,12.71-12.71s-5.69-12.71-12.71-12.71-12.71,5.69-12.71,12.71,5.69,12.71,12.71,12.71Z"/>
      <path d="M854.3,482.35h-62.93c-2.07,0-3.75,1.68-3.75,3.75v49.96c0,2.07,1.68,3.75,3.75,3.75h62.93c2.07,0,3.75-1.68,3.75-3.75v-49.96c0-2.07-1.68-3.75-3.75-3.75Z"/>
      <path d="M782.16,492.38h-9.58c-3.02,0-5.46,2.44-5.46,5.46v27.33c0,3.02,2.44,5.46,5.46,5.46h9.58c3.02,0,5.46-2.45,5.46-5.46v-27.33c0-3.02-2.44-5.46-5.46-5.46Z"/>
      <path class="cls-18" d="M814.12,482.37h-24.74c-.97,0-1.76.79-1.76,1.76s.79,1.76,1.76,1.76h24.74c.97,0,1.76-.79,1.76-1.76s-.79-1.76-1.76-1.76Z"/>
      <path class="cls-13" d="M642.65,436.79h-9.81v5.2h9.81v-5.2Z"/>
      <path d="M644.16,438.7h-12.51v21.61h12.51v-21.61Z"/>
      <path d="M300.89,266.68l-94.58.61.38,59.43,94.57-.61-.38-59.43Z"/>
      <path class="cls-3" d="M212.9,266.94l-.09-15.3"/>
      <path class="cls-3" d="M221.8,266.89l-.11-15.3"/>
      <path class="cls-3" d="M231.39,266.83l-.11-15.3"/>
      <path class="cls-3" d="M240.32,266.77l-.11-15.3"/>
      <path class="cls-3" d="M259.31,266.72l-.11-15.21"/>
      <path class="cls-3" d="M268.84,266.66l-.09-15.24"/>
      <path class="cls-3" d="M277.77,266.57l-.09-15.21"/>
      <path class="cls-3" d="M295.42,266.63l-.08-15.24"/>
      <path class="cls-3" d="M286.5,266.69l-.08-15.24"/>
      <path class="cls-3" d="M250.38,266.77l-.11-15.21"/>
      <path class="cls-3" d="M213.59,342.47l-.09-15.21"/>
      <path class="cls-3" d="M222.52,342.41l-.09-15.24"/>
      <path class="cls-3" d="M232.07,342.33l-.11-15.21"/>
      <path class="cls-3" d="M241,342.27l-.11-15.21"/>
      <path class="cls-3" d="M295.34,342.21l-.08-15.21"/>
      <path class="cls-3" d="M286.41,342.27l-.09-15.21"/>
      <path class="cls-3" d="M250.47,342.38l-.08-15.24"/>
      <path class="cls-3" d="M259.4,342.33l-.08-15.24"/>
      <path class="cls-3" d="M268.95,342.24l-.11-15.21"/>
      <path class="cls-3" d="M277.88,342.19l-.11-15.21"/>
      <path d="M688.07,458.37h-10.32v10.32h10.32v-10.32Z"/>
      <rect class="cls-10" x="820.18" y="160.37" width="44.08" height="61.14"/>
      <rect class="cls-10" x="760.46" y="470.32" width="103.79" height="78.2"/>
      <rect class="cls-10" x="609.75" y="151.84" width="115.16" height="109.48"/>
      <rect class="cls-10" x="675.16" y="509.25" width="17.13" height="36.42"/>
      <rect class="cls-10" x="547.2" y="512.97" width="123.7" height="32.7"/>
      <rect class="cls-10" x="424.92" y="464.63" width="112.32" height="83.89"/>
      <rect class="cls-10" x="277.06" y="450.02" width="123.7" height="41.63"/>
      <rect class="cls-10" x="157.62" y="461.79" width="106.63" height="83.89"/>
      <rect class="cls-10" x="160.47" y="160.37" width="109.48" height="83.89"/>
      <rect class="cls-10" x="265.68" y="512.97" width="75.35" height="32.7"/>
      <rect class="cls-10" x="268.52" y="166.05" width="72.51" height="29.86"/>
      <rect class="cls-10" x="342.46" y="166.05" width="89.57" height="29.86"/>
      <rect class="cls-10" x="339.61" y="200.18" width="95.26" height="27.01"/>
      <rect class="cls-10" x="439.14" y="166.05" width="69.67" height="27.01"/>
      <rect class="cls-10" x="345.3" y="512.97" width="75.35" height="32.7"/>
    </g>
  </g>
  <path class="cls-17" d="M264.63,32.51v10.34h-1.25v-10.34h1.25ZM266.96,42.85v-.91l3.41-3.74c.4-.44.73-.82.99-1.14.26-.33.45-.63.57-.92.13-.29.19-.59.19-.91,0-.36-.09-.68-.26-.94-.17-.27-.41-.47-.71-.62-.3-.14-.64-.22-1.01-.22-.4,0-.74.08-1.04.25-.29.16-.52.39-.68.68-.16.29-.24.64-.24,1.03h-1.19c0-.61.14-1.14.42-1.6.28-.46.66-.81,1.14-1.07.48-.26,1.03-.38,1.63-.38s1.14.13,1.61.38c.47.26.83.6,1.1,1.04.27.43.4.92.4,1.45,0,.38-.07.75-.21,1.12-.14.36-.37.76-.71,1.21-.33.44-.8.98-1.39,1.62l-2.32,2.48v.08h4.81v1.11h-6.52ZM284.07,35.74h-1.25c-.07-.36-.2-.68-.39-.95-.18-.27-.4-.5-.67-.69-.26-.19-.55-.33-.86-.42-.32-.09-.65-.14-.99-.14-.63,0-1.19.16-1.7.47-.5.32-.91.78-1.21,1.4-.3.62-.44,1.37-.44,2.27s.15,1.65.44,2.27c.3.62.7,1.08,1.21,1.4.51.32,1.08.47,1.7.47.34,0,.67-.05.99-.14.32-.09.61-.23.86-.42.26-.19.48-.42.67-.69.18-.28.32-.59.39-.95h1.25c-.09.53-.27,1-.52,1.42-.25.42-.56.77-.93,1.07-.37.29-.79.51-1.25.66-.46.15-.95.23-1.47.23-.88,0-1.67-.22-2.35-.65-.69-.43-1.23-1.04-1.62-1.84-.39-.79-.59-1.74-.59-2.83s.2-2.03.59-2.83c.39-.79.93-1.41,1.62-1.84.69-.43,1.47-.65,2.35-.65.52,0,1.01.08,1.47.23.46.15.88.37,1.25.67.37.29.68.64.93,1.06.25.41.42.89.52,1.42ZM294.37,37.13v1.11h-4.52v-1.11h4.52ZM309.36,37.68c0,1.09-.2,2.03-.59,2.83-.39.79-.93,1.41-1.62,1.84-.69.43-1.47.65-2.35.65s-1.67-.22-2.35-.65c-.69-.43-1.23-1.04-1.62-1.84-.39-.79-.59-1.74-.59-2.83s.2-2.03.59-2.83c.39-.79.93-1.41,1.62-1.84.69-.43,1.47-.65,2.35-.65s1.67.22,2.35.65c.69.43,1.23,1.04,1.62,1.84.39.79.59,1.74.59,2.83ZM308.14,37.68c0-.9-.15-1.65-.45-2.27-.3-.62-.7-1.08-1.21-1.4-.51-.32-1.07-.47-1.7-.47s-1.19.16-1.7.47c-.51.32-.91.78-1.21,1.4-.3.62-.44,1.37-.44,2.27s.15,1.65.44,2.27c.3.62.7,1.08,1.21,1.4.51.32,1.07.47,1.7.47s1.19-.16,1.7-.47c.51-.32.91-.78,1.21-1.4.3-.62.45-1.37.45-2.27ZM311.46,42.85v-10.34h1.25v9.23h4.81v1.11h-6.06ZM319.46,42.85v-10.34h6.24v1.11h-4.99v3.49h4.67v1.11h-4.67v3.51h5.07v1.11h-6.32ZM331.15,42.85h-3.19v-10.34h3.33c1,0,1.86.21,2.58.62.71.41,1.26,1,1.64,1.77.38.77.57,1.69.57,2.76s-.19,2-.58,2.78c-.38.77-.94,1.37-1.68,1.79-.73.41-1.63.62-2.68.62ZM329.21,41.74h1.86c.86,0,1.56-.17,2.12-.49.56-.33.98-.8,1.26-1.41.28-.61.41-1.33.41-2.18s-.14-1.55-.41-2.16c-.27-.61-.68-1.07-1.22-1.39-.54-.33-1.22-.49-2.02-.49h-2v8.12ZM345.37,42.85h-3.19v-10.34h3.33c1,0,1.86.21,2.58.62.71.41,1.26,1,1.64,1.77.38.77.57,1.69.57,2.76s-.19,2-.58,2.78c-.38.77-.94,1.37-1.68,1.79-.73.41-1.63.62-2.68.62ZM343.43,41.74h1.86c.86,0,1.56-.17,2.12-.49.56-.33.98-.8,1.26-1.41.28-.61.41-1.33.41-2.18s-.14-1.55-.41-2.16c-.27-.61-.68-1.07-1.22-1.39-.54-.33-1.22-.49-2.02-.49h-2v8.12ZM352.23,42.85v-7.76h1.19v7.76h-1.19ZM352.84,33.8c-.23,0-.43-.08-.6-.24-.17-.16-.25-.35-.25-.57s.08-.41.25-.57c.17-.16.37-.24.6-.24s.43.08.6.24c.17.16.25.35.25.57s-.08.41-.25.57c-.16.16-.36.24-.6.24ZM361.1,36.83l-1.07.3c-.07-.18-.17-.35-.3-.52-.13-.17-.3-.31-.52-.42-.22-.11-.51-.17-.85-.17-.48,0-.87.11-1.19.33-.31.22-.47.49-.47.82,0,.3.11.53.32.7.21.17.55.31,1.01.43l1.15.28c.69.17,1.21.43,1.55.77.34.34.51.79.51,1.33,0,.44-.13.84-.38,1.19-.25.35-.61.63-1.06.83-.45.2-.98.3-1.59.3-.79,0-1.45-.17-1.96-.51-.52-.34-.85-.84-.98-1.5l1.13-.28c.11.42.31.73.61.94.3.21.7.31,1.19.31.56,0,1-.12,1.32-.35.33-.24.49-.53.49-.86,0-.27-.09-.49-.28-.68-.19-.19-.48-.32-.87-.41l-1.29-.3c-.71-.17-1.23-.43-1.57-.78-.33-.36-.49-.8-.49-1.34,0-.44.12-.82.37-1.16.25-.34.59-.6,1.02-.79.43-.19.92-.29,1.46-.29.77,0,1.37.17,1.81.5.44.34.75.78.94,1.33ZM363.03,45.76v-10.66h1.15v1.23h.14c.09-.13.21-.31.36-.51.16-.21.38-.4.68-.57.3-.17.7-.25,1.2-.25.65,0,1.23.16,1.73.49.5.33.89.79,1.17,1.39.28.6.42,1.31.42,2.12s-.14,1.53-.42,2.14c-.28.6-.67,1.06-1.16,1.39-.49.33-1.07.49-1.71.49-.5,0-.9-.08-1.2-.25-.3-.17-.53-.36-.69-.57-.16-.22-.29-.39-.37-.54h-.1v4.1h-1.19ZM364.21,38.97c0,.59.09,1.1.26,1.55.17.44.42.79.75,1.05.33.25.73.37,1.21.37s.91-.13,1.25-.39c.34-.27.59-.62.76-1.07.17-.45.26-.95.26-1.5s-.08-1.04-.25-1.47c-.17-.44-.42-.79-.75-1.05-.33-.26-.75-.39-1.26-.39s-.89.12-1.22.37c-.33.24-.58.58-.75,1.02-.17.43-.25.94-.25,1.52ZM372.89,32.51v10.34h-1.19v-10.34h1.19ZM377.35,43.03c-.49,0-.94-.09-1.34-.28-.4-.19-.72-.46-.95-.81-.24-.36-.35-.79-.35-1.29,0-.44.09-.8.26-1.08.17-.28.41-.5.7-.66s.62-.28.97-.35c.36-.08.71-.14,1.07-.19.47-.06.85-.11,1.15-.14.3-.03.51-.09.65-.17.14-.08.21-.21.21-.4v-.04c0-.5-.14-.89-.41-1.16-.27-.28-.68-.41-1.23-.41s-1.02.12-1.34.37c-.32.25-.55.51-.68.8l-1.13-.4c.2-.47.47-.84.81-1.1.34-.27.71-.45,1.11-.56.4-.11.8-.16,1.19-.16.25,0,.54.03.86.09.33.06.64.18.94.36.31.18.56.46.76.82.2.37.3.86.3,1.47v5.11h-1.19v-1.05h-.06c-.08.17-.22.35-.4.54-.19.19-.44.36-.75.49-.31.13-.7.2-1.15.2ZM377.54,41.96c.47,0,.87-.09,1.19-.28.33-.19.57-.42.74-.72.17-.29.25-.6.25-.92v-1.09c-.05.06-.16.12-.33.17-.17.05-.36.09-.58.13-.22.03-.43.06-.64.09-.21.02-.37.04-.5.06-.31.04-.6.11-.87.2-.27.09-.48.22-.65.4-.16.18-.24.41-.24.72,0,.41.15.73.46.94.31.21.7.31,1.18.31ZM383.57,45.76c-.2,0-.38-.02-.54-.05-.16-.03-.27-.06-.33-.09l.3-1.05c.29.07.55.1.77.08.22-.02.42-.12.59-.3.17-.18.33-.46.48-.85l.22-.61-2.87-7.8h1.29l2.14,6.18h.08l2.14-6.18h1.29l-3.29,8.89c-.15.4-.33.73-.55.99-.22.27-.47.46-.76.59-.29.13-.61.19-.97.19Z"/>
  <line class="cls-12" x1="423.51" y1="577.55" x2="434.88" y2="503.62"/>
  <line class="cls-12" x1="480.38" y1="577.8" x2="471.85" y2="535.15"/>
  <line class="cls-12" x1="534.42" y1="572.15" x2="525.89" y2="538.02"/>
  <line class="cls-12" x1="631.08" y1="609.01" x2="625.4" y2="546.45"/>
  <line class="cls-12" x1="739.27" y1="575.24" x2="692.28" y2="545.67"/>
  <line class="cls-12" x1="918.99" y1="512.97" x2="864.97" y2="512.97"/>
  <line class="cls-12" x1="918.99" y1="191.65" x2="864.97" y2="191.65"/>
  <line class="cls-12" x1="808.56" y1="80.57" x2="726.09" y2="151.66"/>
  <path class="cls-10" d="M160.47,288.33h38.39v109.48h-38.39v-109.48Z"/>
  <path class="cls-8" d="M424.92,11.88l-20.61,154.88"/>
  <path class="cls-8" d="M449.98,116.58l2.67,48.76"/>
  <path class="cls-8" d="M498.52,99.94l-20.28,65.4"/>
  <path class="cls-8" d="M529.8,118.5l-28.81,46.84"/>
  <line class="cls-12" x1="322.55" y1="45.84" x2="339.61" y2="202.23"/>
  <line class="cls-12" x1="259.94" y1="111.04" x2="282.69" y2="165.07"/>
  <line class="cls-12" x1="80.14" y1="198.76" x2="159.76" y2="198.76"/>
  <line class="cls-12" x1="80.14" y1="340.93" x2="159.76" y2="340.93"/>
  <line class="cls-12" x1="80.14" y1="500.17" x2="156.91" y2="500.17"/>
  <line class="cls-12" x1="210.39" y1="574.37" x2="278.64" y2="491.9"/>
  <line class="cls-12" x1="287.06" y1="580.23" x2="301.28" y2="546.11"/>
  <line class="cls-12" x1="355.31" y1="580.23" x2="369.53" y2="546.11"/>
  <g>
    <path d="M820.4,75.03c-.79.39-2.36.79-4.38.79-4.67,0-8.19-2.95-8.19-8.38s3.52-8.7,8.65-8.7c2.06,0,3.37.44,3.93.74l-.52,1.75c-.81-.39-1.97-.69-3.34-.69-3.88,0-6.46,2.48-6.46,6.83,0,4.06,2.33,6.66,6.37,6.66,1.3,0,2.63-.27,3.49-.69l.44,1.7Z"/>
    <path d="M830.16,75.57l-.17-1.5h-.07c-.66.93-1.94,1.77-3.64,1.77-2.41,0-3.64-1.7-3.64-3.42,0-2.88,2.56-4.45,7.15-4.42v-.25c0-.98-.27-2.75-2.7-2.75-1.11,0-2.26.34-3.1.89l-.49-1.43c.98-.64,2.41-1.06,3.91-1.06,3.64,0,4.52,2.48,4.52,4.87v4.45c0,1.03.05,2.04.2,2.85h-1.97ZM829.84,69.5c-2.36-.05-5.04.37-5.04,2.68,0,1.4.93,2.06,2.04,2.06,1.55,0,2.53-.98,2.88-1.99.07-.22.12-.47.12-.69v-2.06Z"/>
    <path d="M836.16,66.9c0-1.23-.03-2.24-.1-3.22h1.89l.1,1.92h.07c.66-1.13,1.77-2.19,3.74-2.19,1.62,0,2.85.98,3.37,2.38h.05c.37-.66.84-1.18,1.33-1.55.71-.54,1.5-.84,2.63-.84,1.57,0,3.91,1.03,3.91,5.16v7.01h-2.11v-6.74c0-2.29-.84-3.66-2.58-3.66-1.23,0-2.19.91-2.56,1.97-.1.29-.17.69-.17,1.08v7.35h-2.11v-7.13c0-1.89-.84-3.27-2.48-3.27-1.35,0-2.33,1.08-2.68,2.16-.12.32-.17.69-.17,1.06v7.18h-2.11v-8.68Z"/>
    <path d="M857.4,67.56c0-1.52-.05-2.75-.1-3.88h1.94l.1,2.04h.05c.89-1.45,2.29-2.31,4.23-2.31,2.88,0,5.04,2.43,5.04,6.05,0,4.28-2.61,6.39-5.41,6.39-1.57,0-2.95-.69-3.66-1.87h-.05v6.46h-2.14v-12.88ZM859.54,70.73c0,.32.05.61.1.89.39,1.5,1.7,2.53,3.25,2.53,2.29,0,3.61-1.87,3.61-4.6,0-2.38-1.25-4.42-3.54-4.42-1.47,0-2.85,1.06-3.27,2.68-.07.27-.15.59-.15.89v2.04Z"/>
    <path d="M878.72,75.57l-.17-1.5h-.07c-.66.93-1.94,1.77-3.64,1.77-2.41,0-3.64-1.7-3.64-3.42,0-2.88,2.56-4.45,7.15-4.42v-.25c0-.98-.27-2.75-2.7-2.75-1.11,0-2.26.34-3.1.89l-.49-1.43c.98-.64,2.41-1.06,3.91-1.06,3.64,0,4.52,2.48,4.52,4.87v4.45c0,1.03.05,2.04.2,2.85h-1.97ZM878.4,69.5c-2.36-.05-5.04.37-5.04,2.68,0,1.4.93,2.06,2.04,2.06,1.55,0,2.53-.98,2.88-1.99.07-.22.12-.47.12-.69v-2.06Z"/>
    <path d="M887.12,60.33c.03.74-.52,1.33-1.38,1.33-.76,0-1.3-.59-1.3-1.33s.57-1.35,1.35-1.35,1.33.59,1.33,1.35ZM884.72,75.57v-11.9h2.16v11.9h-2.16Z"/>
    <path d="M891.21,66.9c0-1.23-.03-2.24-.1-3.22h1.92l.12,1.97h.05c.59-1.13,1.97-2.24,3.93-2.24,1.65,0,4.2.98,4.2,5.06v7.1h-2.16v-6.86c0-1.92-.71-3.52-2.75-3.52-1.43,0-2.53,1.01-2.9,2.21-.1.27-.15.64-.15,1.01v7.15h-2.16v-8.68Z"/>
    <path d="M905.59,58.12h2.16v7.42h.05c.34-.61.88-1.16,1.55-1.52.64-.37,1.4-.61,2.21-.61,1.6,0,4.15.98,4.15,5.09v7.08h-2.16v-6.83c0-1.92-.71-3.54-2.75-3.54-1.4,0-2.51.98-2.9,2.16-.12.29-.15.61-.15,1.03v7.18h-2.16v-17.45Z"/>
    <path d="M926.56,75.57l-.17-1.5h-.07c-.66.93-1.94,1.77-3.64,1.77-2.41,0-3.64-1.7-3.64-3.42,0-2.88,2.56-4.45,7.15-4.42v-.25c0-.98-.27-2.75-2.7-2.75-1.11,0-2.26.34-3.1.89l-.49-1.43c.98-.64,2.41-1.06,3.91-1.06,3.64,0,4.52,2.48,4.52,4.87v4.45c0,1.03.05,2.04.2,2.85h-1.97ZM926.24,69.5c-2.36-.05-5.04.37-5.04,2.68,0,1.4.93,2.06,2.04,2.06,1.55,0,2.53-.98,2.88-1.99.07-.22.12-.47.12-.69v-2.06Z"/>
  </g>
  <g>
    <path d="M749.89,569.72h1.04v7.21h3.45v.88h-4.5v-8.08Z"/>
    <path d="M760.1,574.01h-3.14v2.91h3.5v.88h-4.55v-8.08h4.37v.88h-3.32v2.55h3.14v.86Z"/>
    <path d="M762.18,569.83c.64-.1,1.39-.17,2.22-.17,1.5,0,2.57.35,3.27,1.01.72.66,1.14,1.59,1.14,2.9s-.41,2.4-1.16,3.14c-.76.76-2,1.16-3.57,1.16-.74,0-1.37-.04-1.9-.1v-7.95ZM763.23,576.97c.26.05.65.06,1.06.06,2.23,0,3.44-1.25,3.44-3.43.01-1.91-1.07-3.12-3.27-3.12-.54,0-.95.05-1.22.11v6.38Z"/>
    <path d="M778.42,569.29v7.02c0,.52.01,1.1.05,1.5h-.95l-.05-1.01h-.02c-.32.65-1.03,1.14-1.98,1.14-1.4,0-2.48-1.19-2.48-2.95-.01-1.93,1.19-3.12,2.6-3.12.89,0,1.49.42,1.75.89h.02v-3.47h1.06ZM777.36,574.36c0-.13-.01-.31-.05-.44-.16-.67-.73-1.22-1.52-1.22-1.09,0-1.74.96-1.74,2.24,0,1.17.58,2.15,1.71,2.15.71,0,1.36-.47,1.55-1.26.04-.14.05-.29.05-.46v-1.01Z"/>
    <path d="M781.12,575.09c.02,1.43.94,2.02,1.99,2.02.76,0,1.21-.13,1.61-.3l.18.75c-.37.17-1.01.36-1.93.36-1.79,0-2.85-1.18-2.85-2.93s1.03-3.13,2.72-3.13c1.89,0,2.4,1.67,2.4,2.73,0,.22-.02.38-.04.49h-4.08ZM784.21,574.34c.01-.67-.28-1.71-1.46-1.71-1.07,0-1.54.98-1.62,1.71h3.08Z"/>
    <path d="M736.2,589.66l-.84,2.54h-1.08l2.75-8.08h1.26l2.76,8.08h-1.12l-.86-2.54h-2.87ZM738.85,588.84l-.79-2.33c-.18-.53-.3-1.01-.42-1.48h-.02c-.12.48-.25.97-.41,1.46l-.79,2.34h2.43Z"/>
    <path d="M742.53,583.69h1.05v8.52h-1.05v-8.52Z"/>
    <path d="M746.89,584.77c.01.36-.25.65-.67.65-.37,0-.64-.29-.64-.65s.28-.66.66-.66.65.29.65.66ZM745.72,592.2v-5.8h1.05v5.8h-1.05Z"/>
    <path d="M748.89,587.97c0-.6-.01-1.09-.05-1.57h.92l.05.94h.04c.32-.55.86-1.07,1.82-1.07.79,0,1.39.48,1.64,1.16h.02c.18-.32.41-.58.65-.76.35-.26.73-.41,1.28-.41.77,0,1.91.5,1.91,2.52v3.42h-1.03v-3.29c0-1.12-.41-1.79-1.26-1.79-.6,0-1.07.44-1.25.96-.05.14-.08.33-.08.53v3.59h-1.03v-3.48c0-.92-.41-1.59-1.21-1.59-.66,0-1.14.53-1.31,1.06-.06.16-.08.34-.08.52v3.5h-1.03v-4.23Z"/>
    <path d="M759.84,589.49c.02,1.43.94,2.02,1.99,2.02.76,0,1.21-.13,1.61-.3l.18.75c-.37.17-1.01.36-1.93.36-1.79,0-2.85-1.18-2.85-2.93s1.03-3.13,2.72-3.13c1.89,0,2.4,1.67,2.4,2.73,0,.22-.02.38-.04.49h-4.08ZM762.94,588.74c.01-.67-.28-1.71-1.46-1.71-1.07,0-1.54.98-1.62,1.71h3.08Z"/>
    <path d="M765.63,587.97c0-.6-.01-1.09-.05-1.57h.94l.06.96h.02c.29-.55.96-1.09,1.92-1.09.8,0,2.05.48,2.05,2.47v3.47h-1.05v-3.35c0-.94-.35-1.72-1.34-1.72-.7,0-1.24.49-1.42,1.08-.05.13-.07.31-.07.49v3.49h-1.05v-4.23Z"/>
    <path d="M773.87,584.73v1.67h1.51v.8h-1.51v3.13c0,.72.2,1.13.79,1.13.28,0,.48-.04.61-.07l.05.79c-.2.08-.53.14-.94.14-.49,0-.89-.16-1.14-.44-.3-.31-.41-.83-.41-1.51v-3.17h-.9v-.8h.9v-1.39l1.03-.28Z"/>
    <path d="M780.14,592.2l-.08-.73h-.04c-.32.46-.95.86-1.78.86-1.17,0-1.77-.83-1.77-1.67,0-1.4,1.25-2.17,3.49-2.16v-.12c0-.48-.13-1.34-1.32-1.34-.54,0-1.1.17-1.51.43l-.24-.7c.48-.31,1.17-.52,1.91-.52,1.78,0,2.21,1.21,2.21,2.37v2.17c0,.5.02,1,.1,1.39h-.96ZM779.99,589.24c-1.15-.02-2.46.18-2.46,1.31,0,.68.46,1.01,1,1.01.76,0,1.24-.48,1.4-.97.04-.11.06-.23.06-.34v-1.01Z"/>
    <path d="M787.21,591.99c-.25.13-.8.31-1.5.34l-.31.48c.44.06.84.37.84.83,0,.71-.59.97-1.25.97-.3,0-.61-.08-.82-.2l.18-.52c.19.12.43.18.65.18.26,0,.52-.1.52-.38-.01-.31-.37-.46-.94-.5l.5-.88c-1.49-.19-2.43-1.32-2.43-2.94,0-1.79,1.22-3.08,3.12-3.08.62,0,1.17.16,1.46.3l-.24.82c-.25-.14-.65-.28-1.22-.28-1.33,0-2.05.98-2.05,2.19,0,1.34.86,2.17,2.01,2.17.6,0,1-.16,1.29-.29l.18.79Z"/>
    <path d="M792.02,592.2l-.08-.73h-.04c-.32.46-.95.86-1.78.86-1.17,0-1.77-.83-1.77-1.67,0-1.4,1.25-2.17,3.49-2.16v-.12c0-.48-.13-1.34-1.32-1.34-.54,0-1.1.17-1.51.43l-.24-.7c.48-.31,1.17-.52,1.91-.52,1.78,0,2.21,1.21,2.21,2.37v2.17c0,.5.02,1,.1,1.39h-.96ZM789.31,585.4c-.02-.78.3-1.25.82-1.25.26,0,.47.11.74.26.19.11.36.2.5.2.19,0,.3-.11.34-.52h.55c.02.8-.25,1.21-.82,1.21-.25,0-.48-.11-.73-.24-.24-.14-.37-.22-.52-.22-.19,0-.29.2-.31.54h-.58ZM791.87,589.24c-1.15-.02-2.46.18-2.46,1.31,0,.68.46,1.01,1,1.01.76,0,1.24-.48,1.4-.97.04-.11.06-.23.06-.34v-1.01Z"/>
    <path d="M800.21,589.25c0,2.15-1.49,3.08-2.89,3.08-1.57,0-2.78-1.15-2.78-2.99,0-1.94,1.27-3.08,2.88-3.08s2.79,1.21,2.79,2.99ZM795.6,589.31c0,1.27.73,2.23,1.76,2.23s1.76-.95,1.76-2.25c0-.98-.49-2.23-1.74-2.23s-1.79,1.15-1.79,2.25Z"/>
  </g>
  <g>
    <path d="M587.96,610.3c.46-.1,1.19-.17,1.93-.17,1.06,0,1.74.18,2.25.59.42.32.68.8.68,1.45,0,.79-.52,1.48-1.38,1.8v.02c.78.19,1.69.84,1.69,2.05,0,.7-.28,1.24-.69,1.64-.57.52-1.49.77-2.83.77-.73,0-1.29-.05-1.64-.1v-8.05ZM589.02,613.65h.96c1.12,0,1.77-.58,1.77-1.37,0-.96-.73-1.34-1.8-1.34-.49,0-.77.04-.94.07v2.64ZM589.02,617.57c.21.04.51.05.89.05,1.09,0,2.1-.4,2.1-1.59,0-1.12-.96-1.58-2.11-1.58h-.88v3.12Z"/>
    <path d="M598.13,618.37l-.08-.74h-.04c-.33.46-.96.88-1.8.88-1.19,0-1.8-.84-1.8-1.69,0-1.42,1.26-2.2,3.54-2.19v-.12c0-.49-.13-1.36-1.34-1.36-.55,0-1.12.17-1.53.44l-.24-.71c.49-.32,1.19-.52,1.93-.52,1.8,0,2.24,1.23,2.24,2.41v2.2c0,.51.02,1.01.1,1.41h-.97ZM597.97,615.37c-1.17-.02-2.49.18-2.49,1.32,0,.69.46,1.02,1.01,1.02.77,0,1.25-.49,1.42-.98.04-.11.06-.23.06-.34v-1.02Z"/>
    <path d="M601.09,614.33c0-.69-.01-1.29-.05-1.83h.94l.04,1.15h.05c.27-.79.91-1.29,1.63-1.29.12,0,.21.01.3.04v1.01c-.11-.02-.22-.04-.36-.04-.75,0-1.29.57-1.43,1.37-.02.15-.05.32-.05.5v3.13h-1.06v-4.04Z"/>
    <path d="M605.48,614.33c0-.69-.01-1.29-.05-1.83h.94l.04,1.15h.05c.27-.79.91-1.29,1.63-1.29.12,0,.21.01.3.04v1.01c-.11-.02-.22-.04-.37-.04-.75,0-1.29.57-1.43,1.37-.02.15-.05.32-.05.5v3.13h-1.06v-4.04Z"/>
    <path d="M613.01,618.37l-.08-.74h-.04c-.33.46-.96.88-1.8.88-1.19,0-1.8-.84-1.8-1.69,0-1.42,1.26-2.2,3.54-2.19v-.12c0-.49-.13-1.36-1.34-1.36-.55,0-1.12.17-1.53.44l-.24-.71c.49-.32,1.19-.52,1.93-.52,1.8,0,2.24,1.23,2.24,2.41v2.2c0,.51.02,1.01.1,1.41h-.97ZM612.85,615.37c-1.17-.02-2.49.18-2.49,1.32,0,.69.46,1.02,1.01,1.02.77,0,1.25-.49,1.42-.98.04-.11.06-.23.06-.34v-1.02Z"/>
    <path d="M615.97,614.09c0-.61-.01-1.11-.05-1.59h.94l.05.95h.04c.33-.56.87-1.08,1.85-1.08.8,0,1.41.49,1.66,1.18h.02c.18-.33.41-.58.66-.77.35-.27.74-.41,1.3-.41.78,0,1.93.51,1.93,2.55v3.46h-1.04v-3.33c0-1.13-.41-1.81-1.28-1.81-.61,0-1.08.45-1.26.97-.05.15-.08.34-.08.53v3.63h-1.04v-3.52c0-.94-.41-1.62-1.23-1.62-.67,0-1.15.53-1.32,1.07-.06.16-.08.34-.08.52v3.55h-1.04v-4.29Z"/>
    <path d="M627.06,615.63c.02,1.45.95,2.04,2.02,2.04.77,0,1.23-.13,1.63-.3l.18.76c-.38.17-1.02.36-1.96.36-1.81,0-2.89-1.19-2.89-2.96s1.04-3.17,2.76-3.17c1.92,0,2.43,1.69,2.43,2.77,0,.22-.02.39-.04.5h-4.13ZM630.19,614.86c.01-.68-.28-1.74-1.48-1.74-1.08,0-1.55,1-1.64,1.74h3.12Z"/>
    <path d="M632.91,614.09c0-.61-.01-1.11-.05-1.59h.95l.06.97h.02c.29-.56.97-1.11,1.94-1.11.81,0,2.08.49,2.08,2.5v3.51h-1.07v-3.39c0-.95-.35-1.74-1.36-1.74-.71,0-1.25.5-1.43,1.09-.05.13-.07.32-.07.5v3.53h-1.07v-4.29Z"/>
    <path d="M641.25,610.81v1.69h1.53v.81h-1.53v3.17c0,.73.21,1.14.8,1.14.28,0,.49-.04.62-.07l.05.8c-.21.08-.53.15-.95.15-.5,0-.9-.16-1.15-.45-.3-.32-.41-.84-.41-1.53v-3.21h-.91v-.81h.91v-1.41l1.04-.28Z"/>
    <path d="M649.6,615.38c0,2.17-1.51,3.12-2.93,3.12-1.59,0-2.82-1.17-2.82-3.02,0-1.97,1.29-3.12,2.92-3.12s2.83,1.23,2.83,3.02ZM644.93,615.45c0,1.29.74,2.26,1.79,2.26s1.79-.96,1.79-2.28c0-1-.5-2.26-1.76-2.26s-1.81,1.17-1.81,2.28Z"/>
    <path d="M654.14,617.09c.47.29,1.17.53,1.89.53,1.08,0,1.71-.57,1.71-1.4,0-.77-.44-1.2-1.54-1.63-1.34-.47-2.16-1.17-2.16-2.32,0-1.28,1.06-2.22,2.65-2.22.84,0,1.45.19,1.81.4l-.29.86c-.27-.15-.81-.39-1.55-.39-1.12,0-1.54.67-1.54,1.23,0,.77.5,1.14,1.63,1.58,1.38.53,2.09,1.2,2.09,2.4,0,1.26-.94,2.36-2.87,2.36-.79,0-1.65-.23-2.09-.52l.27-.89Z"/>
    <path d="M660.63,610.28c.51-.08,1.18-.16,2.03-.16,1.04,0,1.81.24,2.3.68.45.39.72.98.72,1.71s-.22,1.32-.63,1.75c-.56.6-1.47.9-2.5.9-.32,0-.61-.01-.85-.07v3.28h-1.06v-8.09ZM661.69,614.23c.23.06.52.08.88.08,1.28,0,2.05-.62,2.05-1.75s-.77-1.6-1.93-1.6c-.46,0-.81.04-1,.08v3.18Z"/>
    <path d="M668.52,610.19v8.19h-1.06v-8.19h1.06Z"/>
  </g>
  <g>
    <path d="M960.29,489.73h-5.05v4.69h5.63v1.41h-7.31v-13h7.02v1.41h-5.34v4.11h5.05v1.39Z"/>
    <path d="M963.57,489.01c0-.96-.02-1.75-.08-2.53h1.5l.1,1.54h.04c.46-.89,1.54-1.75,3.09-1.75,1.29,0,3.3.77,3.3,3.97v5.57h-1.7v-5.38c0-1.5-.56-2.76-2.16-2.76-1.12,0-1.99.79-2.28,1.74-.08.21-.12.5-.12.79v5.61h-1.7v-6.81Z"/>
    <path d="M976.81,483.8v2.68h2.43v1.29h-2.43v5.03c0,1.16.33,1.81,1.27,1.81.44,0,.77-.06.98-.12l.08,1.27c-.33.13-.85.23-1.5.23-.79,0-1.43-.25-1.83-.71-.48-.5-.66-1.33-.66-2.43v-5.09h-1.45v-1.29h1.45v-2.24l1.66-.44Z"/>
    <path d="M981.73,489.4c0-1.1-.02-2.04-.08-2.91h1.48l.06,1.83h.08c.42-1.25,1.45-2.04,2.58-2.04.19,0,.33.02.48.06v1.6c-.17-.04-.35-.06-.58-.06-1.2,0-2.04.91-2.28,2.18-.04.23-.08.5-.08.79v4.98h-1.68v-6.42Z"/>
    <path d="M993.68,495.82l-.14-1.18h-.06c-.52.73-1.52,1.39-2.85,1.39-1.89,0-2.85-1.33-2.85-2.68,0-2.26,2.01-3.49,5.61-3.47v-.19c0-.77-.21-2.16-2.12-2.16-.87,0-1.77.27-2.43.7l-.39-1.12c.77-.5,1.89-.83,3.07-.83,2.85,0,3.55,1.95,3.55,3.82v3.49c0,.81.04,1.6.15,2.24h-1.54ZM993.43,491.06c-1.85-.04-3.95.29-3.95,2.1,0,1.1.73,1.62,1.6,1.62,1.22,0,1.99-.77,2.26-1.56.06-.17.1-.37.1-.54v-1.62Z"/>
    <path d="M1006.45,482.13v11.28c0,.83.02,1.77.08,2.41h-1.52l-.08-1.62h-.04c-.52,1.04-1.66,1.83-3.18,1.83-2.26,0-3.99-1.91-3.99-4.74-.02-3.11,1.91-5.01,4.19-5.01,1.43,0,2.39.67,2.82,1.43h.04v-5.57h1.7ZM1004.75,490.28c0-.21-.02-.5-.08-.71-.25-1.08-1.18-1.97-2.45-1.97-1.75,0-2.8,1.54-2.8,3.61,0,1.89.93,3.45,2.76,3.45,1.14,0,2.18-.75,2.49-2.03.06-.23.08-.46.08-.73v-1.62Z"/>
    <path d="M1015.01,495.82l-.13-1.18h-.06c-.52.73-1.52,1.39-2.85,1.39-1.89,0-2.85-1.33-2.85-2.68,0-2.26,2.01-3.49,5.61-3.47v-.19c0-.77-.21-2.16-2.12-2.16-.87,0-1.77.27-2.43.7l-.38-1.12c.77-.5,1.89-.83,3.07-.83,2.85,0,3.55,1.95,3.55,3.82v3.49c0,.81.04,1.6.15,2.24h-1.54ZM1014.76,491.06c-1.85-.04-3.95.29-3.95,2.1,0,1.1.73,1.62,1.6,1.62,1.21,0,1.99-.77,2.26-1.56.06-.17.1-.37.1-.54v-1.62Z"/>
    <path d="M1032.44,482.13v11.28c0,.83.02,1.77.08,2.41h-1.52l-.08-1.62h-.04c-.52,1.04-1.66,1.83-3.18,1.83-2.26,0-3.99-1.91-3.99-4.74-.02-3.11,1.91-5.01,4.18-5.01,1.43,0,2.39.67,2.82,1.43h.04v-5.57h1.7ZM1030.74,490.28c0-.21-.02-.5-.08-.71-.25-1.08-1.18-1.97-2.45-1.97-1.75,0-2.8,1.54-2.8,3.61,0,1.89.93,3.45,2.76,3.45,1.14,0,2.18-.75,2.49-2.03.06-.23.08-.46.08-.73v-1.62Z"/>
    <path d="M1036.77,491.46c.04,2.29,1.5,3.24,3.2,3.24,1.21,0,1.95-.21,2.58-.48l.29,1.21c-.6.27-1.62.58-3.11.58-2.87,0-4.59-1.89-4.59-4.71s1.66-5.03,4.38-5.03c3.05,0,3.86,2.68,3.86,4.4,0,.35-.04.62-.06.79h-6.56ZM1041.75,490.25c.02-1.08-.44-2.76-2.35-2.76-1.72,0-2.47,1.58-2.6,2.76h4.96Z"/>
    <path d="M932.78,514.87l-1.35,4.09h-1.74l4.42-13h2.03l4.44,13h-1.79l-1.39-4.09h-4.61ZM937.04,513.56l-1.27-3.74c-.29-.85-.48-1.62-.67-2.37h-.04c-.19.77-.4,1.56-.66,2.35l-1.27,3.76h3.92Z"/>
    <path d="M942.94,505.26h1.7v13.69h-1.7v-13.69Z"/>
    <path d="M949.96,507c.02.58-.4,1.04-1.08,1.04-.6,0-1.02-.46-1.02-1.04s.44-1.06,1.06-1.06,1.04.46,1.04,1.06ZM948.07,518.96v-9.33h1.7v9.33h-1.7Z"/>
    <path d="M953.16,512.15c0-.96-.02-1.75-.08-2.53h1.48l.08,1.5h.06c.52-.89,1.39-1.72,2.93-1.72,1.27,0,2.24.77,2.64,1.87h.04c.29-.52.66-.93,1.04-1.22.56-.42,1.18-.66,2.06-.66,1.23,0,3.07.81,3.07,4.05v5.5h-1.66v-5.29c0-1.79-.66-2.87-2.03-2.87-.96,0-1.72.71-2.01,1.54-.08.23-.13.54-.13.85v5.77h-1.66v-5.59c0-1.48-.66-2.56-1.95-2.56-1.06,0-1.83.85-2.1,1.7-.1.25-.14.54-.14.83v5.63h-1.66v-6.81Z"/>
    <path d="M970.76,514.6c.04,2.3,1.5,3.24,3.2,3.24,1.21,0,1.95-.21,2.58-.48l.29,1.21c-.6.27-1.62.58-3.11.58-2.87,0-4.59-1.89-4.59-4.71s1.66-5.03,4.38-5.03c3.05,0,3.86,2.68,3.86,4.4,0,.35-.04.62-.06.79h-6.56ZM975.74,513.38c.02-1.08-.44-2.76-2.35-2.76-1.72,0-2.47,1.58-2.6,2.76h4.96Z"/>
    <path d="M980.05,512.15c0-.96-.02-1.75-.08-2.53h1.5l.1,1.54h.04c.46-.89,1.54-1.75,3.09-1.75,1.29,0,3.3.77,3.3,3.97v5.57h-1.7v-5.38c0-1.5-.56-2.76-2.16-2.76-1.12,0-1.99.79-2.28,1.74-.08.21-.12.5-.12.79v5.61h-1.7v-6.81Z"/>
    <path d="M993.3,506.94v2.68h2.43v1.29h-2.43v5.03c0,1.16.33,1.81,1.27,1.81.44,0,.77-.06.98-.12l.08,1.27c-.33.14-.85.23-1.5.23-.79,0-1.43-.25-1.83-.71-.48-.5-.66-1.33-.66-2.43v-5.09h-1.45v-1.29h1.45v-2.24l1.66-.44Z"/>
    <path d="M1003.38,518.96l-.13-1.18h-.06c-.52.73-1.52,1.39-2.85,1.39-1.89,0-2.85-1.33-2.85-2.68,0-2.26,2.01-3.49,5.61-3.47v-.19c0-.77-.21-2.16-2.12-2.16-.87,0-1.77.27-2.43.69l-.38-1.12c.77-.5,1.89-.83,3.07-.83,2.85,0,3.55,1.95,3.55,3.82v3.49c0,.81.04,1.6.15,2.24h-1.54ZM1003.13,514.19c-1.85-.04-3.95.29-3.95,2.1,0,1.1.73,1.62,1.6,1.62,1.21,0,1.99-.77,2.26-1.56.06-.17.1-.37.1-.54v-1.62Z"/>
    <path d="M1014.74,518.61c-.4.21-1.29.5-2.41.54l-.5.77c.71.1,1.35.6,1.35,1.33,0,1.14-.95,1.56-2.01,1.56-.48,0-.98-.13-1.31-.33l.29-.83c.31.19.69.29,1.04.29.42,0,.83-.15.83-.62-.02-.5-.6-.73-1.5-.81l.81-1.41c-2.39-.31-3.92-2.12-3.92-4.73,0-2.87,1.97-4.96,5.01-4.96,1,0,1.89.25,2.35.48l-.39,1.31c-.41-.23-1.04-.44-1.97-.44-2.14,0-3.3,1.58-3.3,3.53,0,2.16,1.39,3.49,3.24,3.49.96,0,1.6-.25,2.08-.46l.29,1.27Z"/>
    <path d="M1022.47,518.96l-.14-1.18h-.06c-.52.73-1.52,1.39-2.85,1.39-1.89,0-2.85-1.33-2.85-2.68,0-2.26,2.01-3.49,5.61-3.47v-.19c0-.77-.21-2.16-2.12-2.16-.87,0-1.77.27-2.43.69l-.39-1.12c.77-.5,1.89-.83,3.07-.83,2.85,0,3.55,1.95,3.55,3.82v3.49c0,.81.04,1.6.15,2.24h-1.54ZM1018.11,508.02c-.04-1.25.48-2.01,1.31-2.01.42,0,.75.17,1.2.42.31.17.58.33.81.33.31,0,.48-.17.54-.83h.89c.04,1.29-.41,1.95-1.31,1.95-.41,0-.77-.17-1.18-.39-.39-.23-.6-.35-.83-.35-.31,0-.46.33-.5.87h-.93ZM1022.22,514.19c-1.85-.04-3.95.29-3.95,2.1,0,1.1.73,1.62,1.6,1.62,1.22,0,1.99-.77,2.26-1.56.06-.17.1-.37.1-.54v-1.62Z"/>
    <path d="M1035.62,514.21c0,3.45-2.39,4.96-4.65,4.96-2.53,0-4.47-1.85-4.47-4.8,0-3.12,2.04-4.96,4.63-4.96s4.49,1.95,4.49,4.8ZM1028.21,514.31c0,2.04,1.18,3.59,2.84,3.59s2.83-1.52,2.83-3.63c0-1.58-.79-3.59-2.8-3.59s-2.87,1.85-2.87,3.63Z"/>
    <path d="M1046.68,505.57c-1.41,1.89-2.43,4.4-2.43,7.89s1.06,5.9,2.43,7.83h-1.33c-1.21-1.6-2.53-4.07-2.53-7.83.02-3.8,1.31-6.27,2.53-7.89h1.33Z"/>
    <path d="M1052.1,505.96h1.68v8.7c0,3.45-1.7,4.51-3.93,4.51-.62,0-1.37-.13-1.79-.31l.25-1.37c.35.13.85.25,1.41.25,1.5,0,2.39-.68,2.39-3.22v-8.56Z"/>
    <path d="M1056.55,518.96v-1.04l1.33-1.29c3.2-3.05,4.65-4.67,4.67-6.56,0-1.27-.62-2.45-2.49-2.45-1.14,0-2.08.58-2.66,1.06l-.54-1.2c.87-.73,2.1-1.27,3.55-1.27,2.7,0,3.84,1.85,3.84,3.65,0,2.31-1.68,4.19-4.32,6.73l-1,.93v.04h5.63v1.41h-8Z"/>
    <path d="M1066.54,521.29c1.37-1.91,2.43-4.42,2.43-7.89s-1.04-5.92-2.43-7.83h1.31c1.23,1.58,2.53,4.05,2.53,7.85s-1.29,6.23-2.53,7.87h-1.31Z"/>
    <path d="M972.09,530.75c-.35-.02-.79,0-1.27.08-2.66.44-4.07,2.39-4.36,4.46h.06c.6-.79,1.64-1.45,3.03-1.45,2.22,0,3.78,1.6,3.78,4.05,0,2.29-1.56,4.42-4.17,4.42s-4.44-2.08-4.44-5.34c0-2.47.89-4.42,2.12-5.65,1.04-1.02,2.43-1.66,4.01-1.85.5-.08.93-.1,1.23-.1v1.39ZM971.61,537.98c0-1.79-1.02-2.87-2.58-2.87-1.02,0-1.97.64-2.43,1.54-.12.19-.19.44-.19.75.04,2.06.98,3.59,2.76,3.59,1.47,0,2.45-1.21,2.45-3.01Z"/>
    <path d="M978.86,542.09l-4.24-13h1.81l2.02,6.4c.56,1.76,1.04,3.34,1.39,4.86h.04c.37-1.5.91-3.14,1.49-4.84l2.2-6.42h1.79l-4.65,13h-1.85Z"/>
    <path d="M997.12,542.09l-.14-1.18h-.06c-.52.73-1.52,1.39-2.85,1.39-1.89,0-2.85-1.33-2.85-2.68,0-2.26,2.01-3.49,5.61-3.47v-.19c0-.77-.21-2.16-2.12-2.16-.87,0-1.77.27-2.43.7l-.39-1.12c.77-.5,1.89-.83,3.07-.83,2.85,0,3.55,1.95,3.55,3.82v3.49c0,.81.04,1.6.15,2.24h-1.54ZM996.87,537.33c-1.85-.04-3.95.29-3.95,2.1,0,1.1.73,1.62,1.6,1.62,1.22,0,1.99-.77,2.26-1.56.06-.17.1-.37.1-.54v-1.62Z"/>
    <path d="M1009.63,531.14h-.04l-2.18,1.18-.33-1.29,2.74-1.46h1.45v12.54h-1.64v-10.96Z"/>
    <path d="M1016.41,542.09v-1.04l1.33-1.29c3.2-3.05,4.65-4.67,4.67-6.56,0-1.27-.62-2.45-2.49-2.45-1.14,0-2.08.58-2.66,1.06l-.54-1.2c.87-.73,2.1-1.27,3.55-1.27,2.7,0,3.84,1.85,3.84,3.65,0,2.31-1.68,4.19-4.32,6.73l-1,.93v.04h5.63v1.41h-8Z"/>
    <path d="M1030.33,542.09l-4.24-13h1.81l2.03,6.4c.56,1.76,1.04,3.34,1.39,4.86h.04c.37-1.5.91-3.14,1.48-4.84l2.2-6.42h1.79l-4.65,13h-1.85Z"/>
  </g>
  <g>
    <path d="M926.11,182.65c.98-.16,2.26-.3,3.88-.3,2,0,3.46.46,4.4,1.3.86.74,1.37,1.88,1.37,3.28s-.42,2.53-1.21,3.35c-1.07,1.14-2.81,1.72-4.79,1.72-.6,0-1.16-.02-1.63-.14v6.28h-2.02v-15.49ZM928.13,190.2c.44.12,1,.16,1.67.16,2.44,0,3.93-1.19,3.93-3.35s-1.46-3.07-3.7-3.07c-.88,0-1.56.07-1.91.16v6.09Z"/>
    <path d="M948.71,192.41c0,4.16-2.88,5.98-5.6,5.98-3.05,0-5.39-2.23-5.39-5.79,0-3.77,2.46-5.98,5.58-5.98s5.42,2.35,5.42,5.79ZM939.79,192.53c0,2.47,1.42,4.33,3.42,4.33s3.42-1.84,3.42-4.37c0-1.91-.95-4.33-3.37-4.33s-3.46,2.23-3.46,4.37Z"/>
    <path d="M951.99,190.39c0-1.33-.02-2.46-.09-3.51h1.79l.07,2.21h.09c.51-1.51,1.74-2.46,3.12-2.46.23,0,.4.02.58.07v1.93c-.21-.05-.42-.07-.7-.07-1.44,0-2.46,1.09-2.74,2.63-.05.28-.09.6-.09.95v6h-2.02v-7.74Z"/>
    <path d="M963.32,183.65v3.23h2.93v1.56h-2.93v6.07c0,1.4.4,2.19,1.54,2.19.54,0,.93-.07,1.19-.14l.09,1.54c-.4.16-1.02.28-1.81.28-.95,0-1.72-.3-2.21-.86-.58-.6-.79-1.6-.79-2.93v-6.14h-1.74v-1.56h1.74v-2.7l2-.53Z"/>
    <path d="M975.48,198.13l-.16-1.42h-.07c-.63.88-1.84,1.67-3.44,1.67-2.28,0-3.44-1.6-3.44-3.23,0-2.72,2.42-4.21,6.77-4.19v-.23c0-.93-.26-2.6-2.56-2.6-1.05,0-2.14.33-2.93.84l-.46-1.35c.93-.6,2.28-1,3.7-1,3.44,0,4.28,2.35,4.28,4.6v4.21c0,.98.05,1.93.19,2.7h-1.86ZM975.18,192.39c-2.23-.05-4.77.35-4.77,2.53,0,1.33.88,1.95,1.93,1.95,1.47,0,2.4-.93,2.72-1.88.07-.21.12-.44.12-.65v-1.95Z"/>
    <path d="M988.87,182.46v9.28c0,3.51,1.56,5,3.65,5,2.33,0,3.81-1.54,3.81-5v-9.28h2.05v9.14c0,4.81-2.54,6.79-5.93,6.79-3.21,0-5.63-1.84-5.63-6.7v-9.23h2.05Z"/>
    <path d="M1002.31,195.67c.91.56,2.23,1.02,3.63,1.02,2.07,0,3.28-1.09,3.28-2.67,0-1.46-.84-2.3-2.95-3.12-2.56-.91-4.14-2.23-4.14-4.44,0-2.44,2.02-4.26,5.07-4.26,1.6,0,2.77.37,3.46.77l-.56,1.65c-.51-.28-1.56-.74-2.98-.74-2.14,0-2.95,1.28-2.95,2.35,0,1.46.95,2.19,3.12,3.02,2.65,1.02,4,2.3,4,4.6,0,2.42-1.79,4.51-5.49,4.51-1.51,0-3.16-.44-4-1l.51-1.7Z"/>
    <path d="M1014.75,182.67c.88-.19,2.28-.33,3.7-.33,2.02,0,3.33.35,4.3,1.14.81.6,1.3,1.53,1.3,2.77,0,1.51-1,2.84-2.65,3.44v.05c1.49.37,3.23,1.6,3.23,3.93,0,1.35-.54,2.37-1.33,3.14-1.09,1-2.86,1.47-5.42,1.47-1.39,0-2.46-.09-3.14-.19v-15.42ZM1016.78,189.09h1.84c2.14,0,3.39-1.12,3.39-2.63,0-1.84-1.39-2.56-3.44-2.56-.93,0-1.46.07-1.79.14v5.05ZM1016.78,196.6c.4.07.98.09,1.7.09,2.09,0,4.02-.77,4.02-3.05,0-2.14-1.84-3.02-4.05-3.02h-1.67v5.98Z"/>
    <path d="M1038.05,181.99c-1.7,2.28-2.93,5.3-2.93,9.51s1.28,7.12,2.93,9.44h-1.61c-1.46-1.93-3.05-4.91-3.05-9.44.02-4.58,1.58-7.56,3.05-9.51h1.61Z"/>
    <path d="M1044.59,182.46h2.02v10.49c0,4.16-2.05,5.44-4.74,5.44-.74,0-1.65-.16-2.16-.37l.3-1.65c.42.16,1.02.3,1.7.3,1.81,0,2.88-.81,2.88-3.88v-10.32Z"/>
    <path d="M1056.28,198.13v-4.12h-7.02v-1.35l6.74-9.65h2.21v9.39h2.12v1.6h-2.12v4.12h-1.93ZM1056.28,192.41v-5.05c0-.79.02-1.58.07-2.37h-.07c-.47.88-.84,1.53-1.26,2.23l-3.7,5.14v.05h4.95Z"/>
    <path d="M1062,200.95c1.65-2.3,2.93-5.33,2.93-9.51s-1.26-7.14-2.93-9.44h1.58c1.49,1.91,3.05,4.88,3.05,9.46s-1.56,7.51-3.05,9.49h-1.58Z"/>
  </g>
  <g>
    <path d="M529.63,584.83c-.38.19-1.15.38-2.13.38-2.28,0-3.99-1.44-3.99-4.09s1.72-4.25,4.22-4.25c1.01,0,1.64.22,1.92.36l-.25.85c-.4-.19-.96-.34-1.63-.34-1.9,0-3.15,1.21-3.15,3.33,0,1.98,1.14,3.25,3.11,3.25.64,0,1.28-.13,1.7-.34l.22.83Z"/>
    <path d="M536.39,582.14c0,2.15-1.49,3.08-2.89,3.08-1.57,0-2.78-1.15-2.78-2.99,0-1.94,1.27-3.08,2.88-3.08s2.79,1.21,2.79,2.99ZM531.78,582.2c0,1.27.73,2.23,1.76,2.23s1.76-.95,1.76-2.25c0-.98-.49-2.23-1.74-2.23s-1.79,1.15-1.79,2.25Z"/>
    <path d="M538.08,580.86c0-.6-.01-1.09-.05-1.57h.94l.06.96h.02c.29-.55.96-1.09,1.92-1.09.8,0,2.05.48,2.05,2.47v3.47h-1.06v-3.35c0-.94-.35-1.72-1.34-1.72-.7,0-1.24.49-1.42,1.08-.05.13-.07.31-.07.49v3.49h-1.06v-4.23Z"/>
    <path d="M545.21,585.09v-5h-.82v-.8h.82v-.31c0-1.54.9-2.53,2.53-2.53.54,0,1.18.17,1.48.38l-.3.8c-.25-.18-.71-.34-1.22-.34-1.12,0-1.44.78-1.44,1.7v.29h3.37v5.8h-1.04v-5h-2.33v5h-1.04Z"/>
    <path d="M556.74,579.29c-.02.42-.05.89-.05,1.59v3.37c0,1.33-.26,2.15-.83,2.65-.56.53-1.38.7-2.11.7s-1.46-.17-1.93-.48l.26-.8c.38.24.98.46,1.7.46,1.08,0,1.87-.56,1.87-2.03v-.65h-.02c-.32.54-.95.97-1.85.97-1.44,0-2.47-1.22-2.47-2.83,0-1.97,1.28-3.08,2.61-3.08,1.01,0,1.56.53,1.81,1.01h.02l.05-.88h.92ZM555.65,581.58c0-.18-.01-.34-.06-.48-.19-.61-.71-1.12-1.48-1.12-1.01,0-1.73.85-1.73,2.2,0,1.14.58,2.09,1.71,2.09.65,0,1.24-.41,1.46-1.08.06-.18.08-.38.08-.56v-1.04Z"/>
    <path d="M527.7,599.23c-.38.19-1.15.38-2.13.38-2.28,0-3.99-1.44-3.99-4.09s1.72-4.25,4.22-4.25c1.01,0,1.64.22,1.92.36l-.25.85c-.4-.19-.96-.34-1.63-.34-1.9,0-3.15,1.21-3.15,3.33,0,1.98,1.14,3.25,3.11,3.25.64,0,1.28-.13,1.7-.34l.22.83Z"/>
    <path d="M536.03,595.37c0,2.78-1.69,4.26-3.75,4.26s-3.63-1.66-3.63-4.1c0-2.57,1.6-4.25,3.75-4.25s3.63,1.69,3.63,4.09ZM529.75,595.5c0,1.73.94,3.27,2.58,3.27s2.59-1.52,2.59-3.36c0-1.61-.84-3.29-2.58-3.29s-2.59,1.6-2.59,3.37Z"/>
    <path d="M537.75,599.49v-8.08h1.14l2.59,4.09c.6.95,1.07,1.8,1.45,2.63h.02c-.1-1.09-.12-2.08-.12-3.33v-3.38h.98v8.08h-1.05l-2.57-4.1c-.56-.9-1.1-1.82-1.51-2.7h-.04c.06,1.03.08,2,.08,3.35v3.45h-.98Z"/>
    <path d="M546,599.49v-8.08h1.14l2.59,4.09c.6.95,1.07,1.8,1.45,2.63h.02c-.1-1.09-.12-2.08-.12-3.33v-3.38h.98v8.08h-1.05l-2.57-4.1c-.56-.9-1.1-1.82-1.51-2.7h-.04c.06,1.03.08,2,.08,3.35v3.45h-.98Z"/>
    <path d="M558.54,592.58h-2.97l-.3,2c.18-.02.35-.05.64-.05.6,0,1.2.13,1.68.42.61.35,1.12,1.02,1.12,2,0,1.52-1.21,2.66-2.9,2.66-.85,0-1.57-.24-1.94-.48l.26-.8c.32.19.96.43,1.67.43,1,0,1.85-.65,1.85-1.69-.01-1.01-.68-1.73-2.24-1.73-.44,0-.79.05-1.08.08l.5-3.74h3.73v.89Z"/>
  </g>
  <g>
    <path d="M461.32,586.89c.47.29,1.15.53,1.87.53,1.07,0,1.69-.56,1.69-1.38,0-.75-.43-1.19-1.52-1.61-1.32-.47-2.13-1.15-2.13-2.29,0-1.26,1.04-2.2,2.61-2.2.83,0,1.43.19,1.79.4l-.29.85c-.26-.14-.8-.38-1.54-.38-1.1,0-1.52.66-1.52,1.21,0,.76.49,1.13,1.61,1.56,1.37.53,2.06,1.19,2.06,2.37,0,1.25-.92,2.33-2.83,2.33-.78,0-1.63-.23-2.06-.52l.26-.88Z"/>
    <path d="M468.36,585.45c.02,1.43.94,2.02,1.99,2.02.76,0,1.21-.13,1.61-.3l.18.75c-.37.17-1.01.36-1.93.36-1.79,0-2.85-1.18-2.85-2.93s1.03-3.13,2.72-3.13c1.9,0,2.4,1.67,2.4,2.73,0,.22-.02.38-.04.49h-4.08ZM471.45,584.69c.01-.67-.28-1.71-1.46-1.71-1.07,0-1.54.98-1.62,1.71h3.08Z"/>
    <path d="M474.14,584.17c0-.68-.01-1.27-.05-1.81h.92l.04,1.14h.05c.26-.78.9-1.27,1.61-1.27.12,0,.2.01.3.04v1c-.11-.02-.22-.04-.36-.04-.74,0-1.27.56-1.42,1.36-.02.14-.05.31-.05.49v3.09h-1.04v-3.99Z"/>
    <path d="M479.14,582.35l1.14,3.26c.19.53.35,1.01.47,1.49h.04c.13-.48.3-.96.49-1.49l1.13-3.26h1.1l-2.28,5.8h-1.01l-2.21-5.8h1.13Z"/>
    <path d="M489.99,585.21c0,2.15-1.49,3.08-2.89,3.08-1.57,0-2.78-1.15-2.78-2.99,0-1.94,1.27-3.08,2.88-3.08s2.79,1.21,2.79,2.99ZM485.39,585.27c0,1.27.73,2.23,1.76,2.23s1.76-.95,1.76-2.25c0-.98-.49-2.23-1.74-2.23s-1.79,1.15-1.79,2.25Z"/>
    <path d="M494.63,580.18c.46-.1,1.18-.17,1.91-.17,1.04,0,1.72.18,2.22.59.42.31.67.79.67,1.43,0,.78-.52,1.46-1.37,1.78v.02c.77.19,1.67.83,1.67,2.03,0,.7-.28,1.22-.68,1.62-.56.52-1.48.76-2.79.76-.72,0-1.27-.05-1.62-.1v-7.95ZM495.67,583.49h.95c1.1,0,1.75-.58,1.75-1.36,0-.95-.72-1.32-1.77-1.32-.48,0-.76.04-.92.07v2.6ZM495.67,587.37c.2.04.5.05.88.05,1.08,0,2.07-.4,2.07-1.57,0-1.1-.95-1.56-2.09-1.56h-.86v3.08Z"/>
    <path d="M467.76,602.3c-.38.19-1.15.38-2.13.38-2.28,0-3.99-1.44-3.99-4.09s1.72-4.25,4.22-4.25c1.01,0,1.64.22,1.92.36l-.25.85c-.4-.19-.96-.34-1.63-.34-1.9,0-3.15,1.21-3.15,3.33,0,1.98,1.14,3.25,3.11,3.25.64,0,1.28-.13,1.7-.34l.22.83Z"/>
    <path d="M476.09,598.43c0,2.78-1.69,4.26-3.75,4.26s-3.63-1.66-3.63-4.1c0-2.57,1.6-4.25,3.75-4.25s3.63,1.69,3.63,4.09ZM469.82,598.57c0,1.73.94,3.27,2.58,3.27s2.59-1.52,2.59-3.36c0-1.61-.84-3.29-2.58-3.29s-2.59,1.6-2.59,3.37Z"/>
    <path d="M477.81,602.56v-8.08h1.14l2.59,4.09c.6.95,1.07,1.8,1.45,2.63h.02c-.1-1.09-.12-2.08-.12-3.33v-3.38h.98v8.08h-1.06l-2.57-4.1c-.56-.9-1.1-1.82-1.51-2.7h-.04c.06,1.03.08,2,.08,3.35v3.45h-.98Z"/>
    <path d="M486.07,602.56v-8.08h1.14l2.59,4.09c.6.95,1.07,1.8,1.45,2.63h.02c-.1-1.09-.12-2.08-.12-3.33v-3.38h.98v8.08h-1.06l-2.57-4.1c-.56-.9-1.1-1.82-1.51-2.7h-.04c.06,1.03.08,2,.08,3.35v3.45h-.98Z"/>
    <path d="M494.2,601.35c.3.19,1,.49,1.73.49,1.36,0,1.77-.86,1.76-1.51-.01-1.09-1-1.56-2.02-1.56h-.59v-.79h.59c.77,0,1.74-.4,1.74-1.32,0-.62-.4-1.18-1.37-1.18-.62,0-1.22.28-1.56.52l-.28-.77c.41-.3,1.2-.6,2.04-.6,1.54,0,2.23.91,2.23,1.86,0,.8-.48,1.49-1.44,1.83v.02c.96.19,1.74.91,1.74,2,0,1.25-.97,2.34-2.84,2.34-.88,0-1.64-.28-2.03-.53l.29-.82Z"/>
  </g>
  <g>
    <path d="M404.02,586.39c.47.29,1.15.53,1.87.53,1.07,0,1.69-.56,1.69-1.38,0-.76-.43-1.19-1.52-1.61-1.32-.47-2.13-1.15-2.13-2.29,0-1.26,1.04-2.2,2.61-2.2.83,0,1.43.19,1.79.4l-.29.85c-.26-.14-.8-.38-1.54-.38-1.1,0-1.52.66-1.52,1.21,0,.76.49,1.13,1.61,1.56,1.37.53,2.06,1.19,2.06,2.37,0,1.25-.92,2.33-2.83,2.33-.78,0-1.63-.23-2.06-.52l.26-.88Z"/>
    <path d="M411.06,584.95c.02,1.43.94,2.02,1.99,2.02.76,0,1.21-.13,1.61-.3l.18.75c-.37.17-1.01.36-1.93.36-1.79,0-2.85-1.18-2.85-2.93s1.03-3.13,2.72-3.13c1.9,0,2.4,1.67,2.4,2.73,0,.22-.02.38-.04.49h-4.08ZM414.16,584.19c.01-.67-.28-1.72-1.46-1.72-1.07,0-1.54.98-1.62,1.72h3.08Z"/>
    <path d="M416.85,583.67c0-.68-.01-1.27-.05-1.81h.92l.04,1.14h.05c.26-.78.9-1.27,1.61-1.27.12,0,.2.01.3.04v1c-.11-.02-.22-.04-.36-.04-.74,0-1.27.56-1.42,1.36-.02.14-.05.31-.05.49v3.09h-1.04v-3.99Z"/>
    <path d="M421.84,581.86l1.14,3.26c.19.53.35,1.01.47,1.49h.04c.13-.48.3-.96.49-1.49l1.13-3.26h1.1l-2.28,5.8h-1.01l-2.21-5.8h1.13Z"/>
    <path d="M432.7,584.71c0,2.15-1.49,3.08-2.89,3.08-1.57,0-2.78-1.15-2.78-2.99,0-1.94,1.27-3.08,2.88-3.08s2.79,1.21,2.79,2.99ZM428.09,584.77c0,1.27.73,2.23,1.76,2.23s1.76-.95,1.76-2.25c0-.98-.49-2.23-1.74-2.23s-1.79,1.15-1.79,2.25Z"/>
    <path d="M438.64,585.12l-.84,2.54h-1.08l2.75-8.08h1.26l2.76,8.08h-1.12l-.86-2.54h-2.87ZM441.29,584.3l-.79-2.33c-.18-.53-.3-1.01-.42-1.48h-.02c-.12.48-.25.97-.41,1.46l-.79,2.34h2.43Z"/>
    <path d="M410.89,601.8c-.38.19-1.15.38-2.13.38-2.28,0-3.99-1.44-3.99-4.09s1.72-4.25,4.22-4.25c1.01,0,1.64.22,1.92.36l-.25.85c-.4-.19-.96-.34-1.63-.34-1.9,0-3.15,1.21-3.15,3.33,0,1.98,1.14,3.25,3.11,3.25.64,0,1.28-.13,1.7-.34l.22.83Z"/>
    <path d="M419.21,597.94c0,2.78-1.69,4.26-3.75,4.26s-3.63-1.66-3.63-4.1c0-2.57,1.6-4.25,3.75-4.25s3.63,1.69,3.63,4.09ZM412.94,598.07c0,1.73.94,3.27,2.58,3.27s2.59-1.52,2.59-3.36c0-1.61-.84-3.29-2.58-3.29s-2.59,1.6-2.59,3.37Z"/>
    <path d="M420.93,602.06v-8.08h1.14l2.59,4.09c.6.95,1.07,1.8,1.45,2.63h.02c-.1-1.09-.12-2.08-.12-3.33v-3.38h.98v8.08h-1.06l-2.57-4.1c-.56-.9-1.1-1.82-1.51-2.7h-.04c.06,1.03.08,2,.08,3.35v3.45h-.98Z"/>
    <path d="M429.19,602.06v-8.08h1.14l2.59,4.09c.6.95,1.07,1.8,1.45,2.63h.02c-.1-1.09-.12-2.08-.12-3.33v-3.38h.98v8.08h-1.06l-2.57-4.1c-.56-.9-1.1-1.82-1.51-2.7h-.04c.06,1.03.08,2,.08,3.35v3.45h-.98Z"/>
    <path d="M441.52,595.01c-.22-.01-.49,0-.79.05-1.66.28-2.53,1.49-2.71,2.77h.04c.37-.49,1.02-.9,1.88-.9,1.38,0,2.35,1,2.35,2.52,0,1.43-.97,2.75-2.59,2.75s-2.76-1.29-2.76-3.32c0-1.54.55-2.75,1.32-3.51.65-.64,1.51-1.03,2.49-1.15.31-.05.58-.06.77-.06v.86ZM441.22,599.51c0-1.12-.64-1.79-1.61-1.79-.64,0-1.22.4-1.51.96-.07.12-.12.28-.12.47.02,1.28.61,2.23,1.72,2.23.91,0,1.52-.76,1.52-1.87Z"/>
  </g>
  <g>
    <path d="M342.69,590.91c-.38.19-1.15.38-2.13.38-2.28,0-3.99-1.44-3.99-4.09s1.72-4.25,4.22-4.25c1.01,0,1.64.22,1.92.36l-.25.85c-.4-.19-.96-.34-1.63-.34-1.9,0-3.15,1.21-3.15,3.33,0,1.98,1.14,3.25,3.11,3.25.64,0,1.28-.13,1.7-.34l.22.83Z"/>
    <path d="M351.01,587.05c0,2.78-1.69,4.26-3.75,4.26s-3.63-1.66-3.63-4.1c0-2.57,1.6-4.25,3.75-4.25s3.63,1.69,3.63,4.09ZM344.74,587.18c0,1.73.94,3.27,2.58,3.27s2.59-1.52,2.59-3.36c0-1.61-.84-3.29-2.58-3.29s-2.59,1.6-2.59,3.37Z"/>
    <path d="M352.73,591.17v-8.08h1.14l2.59,4.09c.6.95,1.07,1.8,1.45,2.63h.02c-.1-1.09-.12-2.08-.12-3.33v-3.38h.98v8.08h-1.06l-2.57-4.1c-.56-.9-1.1-1.82-1.51-2.7h-.04c.06,1.03.08,2,.08,3.35v3.45h-.98Z"/>
    <path d="M360.99,591.17v-8.08h1.14l2.59,4.09c.6.95,1.07,1.8,1.45,2.63h.02c-.1-1.09-.12-2.08-.12-3.33v-3.38h.98v8.08h-1.06l-2.57-4.1c-.56-.9-1.1-1.82-1.51-2.7h-.04c.06,1.03.08,2,.08,3.35v3.45h-.98Z"/>
    <path d="M368.87,591.17v-.65l.83-.8c1.99-1.89,2.89-2.9,2.9-4.08,0-.79-.38-1.52-1.55-1.52-.71,0-1.3.36-1.66.66l-.34-.74c.54-.46,1.31-.79,2.21-.79,1.68,0,2.39,1.15,2.39,2.27,0,1.44-1.04,2.6-2.69,4.19l-.62.58v.02h3.5v.88h-4.98Z"/>
  </g>
  <g>
    <path d="M274.44,591.31c-.38.19-1.15.38-2.13.38-2.28,0-3.99-1.44-3.99-4.09s1.72-4.25,4.22-4.25c1.01,0,1.64.22,1.92.36l-.25.85c-.4-.19-.96-.34-1.63-.34-1.9,0-3.15,1.21-3.15,3.33,0,1.98,1.14,3.25,3.11,3.25.64,0,1.28-.13,1.7-.34l.22.83Z"/>
    <path d="M282.77,587.45c0,2.78-1.69,4.26-3.75,4.26s-3.63-1.66-3.63-4.1c0-2.57,1.6-4.25,3.75-4.25s3.63,1.69,3.63,4.09ZM276.5,587.58c0,1.73.94,3.27,2.58,3.27s2.59-1.52,2.59-3.36c0-1.61-.84-3.29-2.58-3.29s-2.59,1.6-2.59,3.37Z"/>
    <path d="M284.49,591.58v-8.08h1.14l2.59,4.09c.6.95,1.07,1.8,1.45,2.63h.02c-.1-1.09-.12-2.08-.12-3.33v-3.38h.98v8.08h-1.06l-2.57-4.1c-.56-.9-1.1-1.82-1.51-2.7h-.04c.06,1.03.08,2,.08,3.35v3.45h-.98Z"/>
    <path d="M292.74,591.58v-8.08h1.14l2.59,4.09c.6.95,1.07,1.8,1.45,2.63h.02c-.1-1.09-.12-2.08-.12-3.33v-3.38h.98v8.08h-1.06l-2.57-4.1c-.56-.9-1.1-1.82-1.51-2.7h-.04c.06,1.03.08,2,.08,3.35v3.45h-.98Z"/>
    <path d="M302.92,584.77h-.02l-1.36.73-.2-.8,1.7-.91h.9v7.8h-1.02v-6.81Z"/>
  </g>
  <g>
    <path d="M169.01,580.08h1.04v7.21h3.45v.88h-4.5v-8.08Z"/>
    <path d="M179.22,584.37h-3.14v2.91h3.5v.88h-4.55v-8.08h4.37v.88h-3.32v2.55h3.14v.86Z"/>
    <path d="M181.3,580.18c.64-.1,1.39-.17,2.22-.17,1.5,0,2.57.35,3.27,1.01.72.66,1.14,1.59,1.14,2.9s-.41,2.4-1.16,3.14c-.76.76-2,1.16-3.57,1.16-.74,0-1.37-.04-1.9-.1v-7.95ZM182.34,587.33c.26.05.65.06,1.06.06,2.23,0,3.44-1.25,3.44-3.43.01-1.91-1.07-3.12-3.27-3.12-.54,0-.95.05-1.22.11v6.38Z"/>
    <path d="M189.47,587.08c.31.2.86.42,1.39.42.77,0,1.13-.38,1.13-.86s-.3-.78-1.08-1.07c-1.04-.37-1.54-.95-1.54-1.64,0-.94.76-1.7,2-1.7.59,0,1.1.17,1.43.36l-.26.77c-.23-.14-.65-.34-1.19-.34-.62,0-.97.36-.97.79,0,.48.35.7,1.1.98,1.01.38,1.52.89,1.52,1.75,0,1.02-.79,1.74-2.17,1.74-.64,0-1.22-.16-1.63-.4l.26-.8Z"/>
    <path d="M199.92,579.84c-.88,1.17-1.51,2.73-1.51,4.91s.66,3.67,1.51,4.87h-.83c-.76-1-1.57-2.53-1.57-4.87.01-2.36.82-3.9,1.57-4.91h.83Z"/>
    <path d="M201.06,588.16v-.65l.83-.8c1.99-1.89,2.89-2.9,2.9-4.08,0-.79-.38-1.52-1.55-1.52-.71,0-1.3.36-1.66.66l-.34-.74c.54-.46,1.31-.79,2.21-.79,1.68,0,2.39,1.15,2.39,2.27,0,1.44-1.04,2.6-2.69,4.19l-.62.58v.02h3.5v.88h-4.98Z"/>
    <path d="M207.23,589.64c.26-.71.59-1.99.72-2.87l1.18-.12c-.28,1.02-.8,2.35-1.14,2.91l-.76.07Z"/>
    <path d="M213.58,586.95c.3.19,1,.49,1.73.49,1.36,0,1.77-.86,1.76-1.51-.01-1.09-1-1.56-2.02-1.56h-.59v-.79h.59c.77,0,1.74-.4,1.74-1.32,0-.62-.4-1.18-1.37-1.18-.62,0-1.22.28-1.56.52l-.28-.77c.41-.3,1.2-.6,2.04-.6,1.54,0,2.23.91,2.23,1.86,0,.8-.48,1.49-1.44,1.83v.02c.96.19,1.74.91,1.74,2,0,1.25-.97,2.34-2.84,2.34-.88,0-1.64-.28-2.03-.53l.29-.82Z"/>
    <path d="M223.67,585.45c.02,1.43.94,2.02,1.99,2.02.76,0,1.21-.13,1.61-.3l.18.75c-.37.17-1.01.36-1.93.36-1.79,0-2.85-1.18-2.85-2.93s1.03-3.13,2.72-3.13c1.9,0,2.4,1.67,2.4,2.73,0,.22-.02.38-.04.49h-4.08ZM226.76,584.69c.01-.67-.28-1.72-1.46-1.72-1.07,0-1.54.98-1.62,1.72h3.08Z"/>
    <path d="M235.28,588.16v-2.12h-3.62v-.7l3.48-4.98h1.14v4.85h1.09v.83h-1.09v2.12h-1ZM235.28,585.21v-2.6c0-.41.01-.82.04-1.22h-.04c-.24.46-.43.79-.65,1.15l-1.91,2.65v.02h2.55Z"/>
    <path d="M238.24,589.61c.85-1.19,1.51-2.75,1.51-4.91s-.65-3.68-1.51-4.87h.82c.77.98,1.57,2.52,1.57,4.88s-.8,3.87-1.57,4.89h-.82Z"/>
    <path d="M178.95,602.3c-.38.19-1.15.38-2.13.38-2.28,0-3.99-1.44-3.99-4.09s1.72-4.25,4.22-4.25c1.01,0,1.64.22,1.92.36l-.25.85c-.4-.19-.96-.34-1.63-.34-1.9,0-3.15,1.21-3.15,3.33,0,1.98,1.14,3.25,3.11,3.25.64,0,1.28-.13,1.7-.34l.22.83Z"/>
    <path d="M185.71,599.61c0,2.15-1.49,3.08-2.89,3.08-1.57,0-2.78-1.15-2.78-2.99,0-1.94,1.27-3.08,2.88-3.08s2.79,1.21,2.79,2.99ZM181.1,599.67c0,1.27.73,2.23,1.76,2.23s1.76-.95,1.76-2.25c0-.98-.49-2.23-1.74-2.23s-1.79,1.15-1.79,2.25Z"/>
    <path d="M187.41,598.33c0-.6-.01-1.09-.05-1.57h.94l.06.96h.02c.29-.55.96-1.09,1.92-1.09.8,0,2.05.48,2.05,2.47v3.47h-1.06v-3.35c0-.94-.35-1.72-1.34-1.72-.7,0-1.24.49-1.42,1.08-.05.13-.07.31-.07.49v3.49h-1.06v-4.23Z"/>
    <path d="M195.65,595.09v1.67h1.51v.8h-1.51v3.13c0,.72.2,1.13.79,1.13.28,0,.48-.04.61-.07l.05.79c-.2.08-.53.14-.94.14-.49,0-.89-.16-1.14-.44-.3-.31-.41-.83-.41-1.51v-3.17h-.9v-.8h.9v-1.39l1.03-.28Z"/>
    <path d="M198.71,598.57c0-.68-.01-1.27-.05-1.81h.92l.04,1.14h.05c.26-.78.9-1.27,1.61-1.27.12,0,.2.01.3.04v1c-.11-.02-.22-.04-.36-.04-.74,0-1.27.56-1.42,1.36-.02.14-.05.31-.05.49v3.09h-1.04v-3.99Z"/>
    <path d="M208.13,599.61c0,2.15-1.49,3.08-2.89,3.08-1.57,0-2.78-1.15-2.78-2.99,0-1.94,1.27-3.08,2.88-3.08s2.79,1.21,2.79,2.99ZM203.52,599.67c0,1.27.73,2.23,1.76,2.23s1.76-.95,1.76-2.25c0-.98-.49-2.23-1.74-2.23s-1.79,1.15-1.79,2.25Z"/>
    <path d="M209.82,594.04h1.06v8.52h-1.06v-8.52Z"/>
    <path d="M216.23,602.56l-.08-.73h-.04c-.32.46-.95.86-1.77.86-1.18,0-1.77-.83-1.77-1.67,0-1.4,1.25-2.17,3.49-2.16v-.12c0-.48-.13-1.34-1.32-1.34-.54,0-1.1.17-1.51.43l-.24-.7c.48-.31,1.18-.52,1.91-.52,1.77,0,2.21,1.21,2.21,2.37v2.17c0,.5.02,1,.1,1.39h-.96ZM216.07,599.6c-1.15-.02-2.46.18-2.46,1.31,0,.68.46,1.01,1,1.01.76,0,1.24-.48,1.4-.97.04-.11.06-.23.06-.34v-1.01Z"/>
    <path d="M224.17,594.04v7.02c0,.52.01,1.1.05,1.5h-.95l-.05-1.01h-.02c-.32.65-1.03,1.14-1.98,1.14-1.4,0-2.48-1.19-2.48-2.95-.01-1.93,1.19-3.12,2.6-3.12.89,0,1.49.42,1.75.89h.02v-3.47h1.06ZM223.12,599.12c0-.13-.01-.31-.05-.44-.16-.67-.73-1.22-1.52-1.22-1.09,0-1.74.96-1.74,2.24,0,1.17.58,2.15,1.72,2.15.71,0,1.35-.47,1.55-1.26.04-.14.05-.29.05-.46v-1.01Z"/>
    <path d="M231.54,599.61c0,2.15-1.49,3.08-2.89,3.08-1.57,0-2.78-1.15-2.78-2.99,0-1.94,1.27-3.08,2.88-3.08s2.79,1.21,2.79,2.99ZM226.93,599.67c0,1.27.73,2.23,1.76,2.23s1.76-.95,1.76-2.25c0-.98-.49-2.23-1.74-2.23s-1.79,1.15-1.79,2.25Z"/>
    <path d="M233.09,601.48c.31.2.86.42,1.39.42.77,0,1.13-.38,1.13-.86s-.3-.78-1.08-1.07c-1.04-.37-1.54-.95-1.54-1.64,0-.94.76-1.7,2-1.7.59,0,1.1.17,1.43.36l-.26.77c-.23-.14-.65-.34-1.19-.34-.62,0-.97.36-.97.79,0,.48.35.7,1.1.98,1.01.38,1.52.89,1.52,1.75,0,1.02-.79,1.74-2.17,1.74-.64,0-1.22-.16-1.63-.4l.26-.8Z"/>
  </g>
  <g>
    <path d="M15.66,485.27c-.11-2.1-.25-4.63-.22-6.51h-.07c-.51,1.77-1.14,3.65-1.9,5.73l-2.66,7.32h-1.48l-2.44-7.19c-.72-2.13-1.32-4.07-1.75-5.86h-.04c-.04,1.88-.16,4.41-.29,6.67l-.4,6.47h-1.86l1.05-15.09h2.48l2.57,7.3c.63,1.86,1.14,3.51,1.52,5.08h.07c.38-1.52.92-3.18,1.59-5.08l2.69-7.3h2.48l.94,15.09h-1.9l-.38-6.63Z"/>
    <path d="M31.48,486.39c0,4.01-2.78,5.75-5.39,5.75-2.93,0-5.19-2.15-5.19-5.57,0-3.63,2.37-5.75,5.37-5.75s5.22,2.26,5.22,5.57ZM22.88,486.51c0,2.37,1.37,4.16,3.29,4.16s3.29-1.77,3.29-4.21c0-1.84-.92-4.16-3.25-4.16s-3.34,2.15-3.34,4.21Z"/>
    <path d="M37.01,477.96v3.11h2.82v1.5h-2.82v5.84c0,1.34.38,2.1,1.48,2.1.51,0,.9-.07,1.14-.13l.09,1.48c-.38.16-.98.27-1.75.27-.92,0-1.66-.29-2.13-.83-.56-.58-.76-1.54-.76-2.82v-5.91h-1.68v-1.5h1.68v-2.6l1.93-.51Z"/>
    <path d="M52.38,486.39c0,4.01-2.78,5.75-5.39,5.75-2.93,0-5.19-2.15-5.19-5.57,0-3.63,2.37-5.75,5.37-5.75s5.22,2.26,5.22,5.57ZM43.79,486.51c0,2.37,1.37,4.16,3.29,4.16s3.29-1.77,3.29-4.21c0-1.84-.92-4.16-3.25-4.16s-3.34,2.15-3.34,4.21Z"/>
    <path d="M55.54,484.45c0-1.28-.02-2.37-.09-3.38h1.72l.07,2.13h.09c.49-1.46,1.68-2.37,3-2.37.22,0,.38.02.56.07v1.86c-.2-.04-.4-.07-.67-.07-1.39,0-2.37,1.05-2.64,2.53-.04.27-.09.58-.09.92v5.78h-1.95v-7.45Z"/>
    <path d="M71.45,487.16l-1.57,4.75h-2.01l5.13-15.09h2.35l5.15,15.09h-2.08l-1.61-4.75h-5.35ZM76.4,485.63l-1.48-4.34c-.34-.99-.56-1.88-.78-2.75h-.04c-.22.9-.47,1.81-.76,2.73l-1.48,4.37h4.54Z"/>
    <path d="M35.7,503.67h1.95v10.09c0,4.01-1.97,5.24-4.57,5.24-.72,0-1.59-.16-2.08-.36l.29-1.59c.4.16.98.29,1.63.29,1.75,0,2.78-.78,2.78-3.74v-9.94Z"/>
    <path d="M45.14,506.04h-.04l-2.53,1.37-.38-1.5,3.18-1.7h1.68v14.55h-1.9v-12.71Z"/>
  </g>
  <g>
    <path d="M1.72,320.24v7.79c0,2.95,1.31,4.2,3.06,4.2,1.95,0,3.2-1.29,3.2-4.2v-7.79h1.72v7.67c0,4.04-2.13,5.7-4.98,5.7-2.69,0-4.72-1.54-4.72-5.62v-7.75h1.72Z"/>
    <path d="M13.17,319.54h1.72v13.86h-1.72v-13.86Z"/>
    <path d="M20.43,321.23v2.71h2.46v1.31h-2.46v5.09c0,1.17.33,1.83,1.29,1.83.45,0,.78-.06,1-.12l.08,1.29c-.33.14-.86.23-1.52.23-.8,0-1.44-.25-1.85-.72-.49-.51-.66-1.35-.66-2.46v-5.15h-1.46v-1.31h1.46v-2.26l1.68-.45Z"/>
    <path d="M25.41,326.89c0-1.11-.02-2.07-.08-2.95h1.5l.06,1.85h.08c.43-1.27,1.46-2.07,2.62-2.07.2,0,.33.02.49.06v1.62c-.18-.04-.35-.06-.59-.06-1.21,0-2.07.92-2.3,2.21-.04.23-.08.51-.08.8v5.04h-1.7v-6.5Z"/>
    <path d="M37.51,333.39l-.14-1.19h-.06c-.53.74-1.54,1.41-2.89,1.41-1.91,0-2.89-1.35-2.89-2.71,0-2.28,2.03-3.53,5.68-3.51v-.2c0-.78-.21-2.19-2.15-2.19-.88,0-1.79.27-2.46.7l-.39-1.13c.78-.51,1.91-.84,3.1-.84,2.89,0,3.59,1.97,3.59,3.86v3.53c0,.82.04,1.62.16,2.26h-1.56ZM37.26,328.57c-1.87-.04-4,.29-4,2.13,0,1.11.74,1.64,1.62,1.64,1.23,0,2.01-.78,2.28-1.58.06-.18.1-.37.1-.55v-1.64Z"/>
    <path d="M42.04,331.64c.51.33,1.41.68,2.26.68,1.25,0,1.83-.62,1.83-1.41,0-.82-.49-1.27-1.76-1.74-1.7-.6-2.5-1.54-2.5-2.67,0-1.52,1.23-2.77,3.26-2.77.96,0,1.8.27,2.32.58l-.43,1.25c-.37-.23-1.05-.55-1.93-.55-1.01,0-1.58.58-1.58,1.29,0,.78.57,1.13,1.79,1.6,1.64.62,2.48,1.44,2.48,2.85,0,1.66-1.29,2.83-3.53,2.83-1.03,0-1.99-.25-2.65-.64l.43-1.31Z"/>
    <path d="M50.35,331.64c.51.33,1.41.68,2.26.68,1.25,0,1.83-.62,1.83-1.41,0-.82-.49-1.27-1.76-1.74-1.7-.6-2.5-1.54-2.5-2.67,0-1.52,1.23-2.77,3.26-2.77.96,0,1.79.27,2.32.58l-.43,1.25c-.37-.23-1.05-.55-1.93-.55-1.01,0-1.58.58-1.58,1.29,0,.78.57,1.13,1.8,1.6,1.64.62,2.48,1.44,2.48,2.85,0,1.66-1.29,2.83-3.53,2.83-1.04,0-1.99-.25-2.65-.64l.43-1.31Z"/>
    <path d="M67.45,328.59c0,3.49-2.42,5.02-4.7,5.02-2.56,0-4.53-1.87-4.53-4.86,0-3.16,2.07-5.02,4.68-5.02s4.55,1.97,4.55,4.86ZM59.95,328.69c0,2.07,1.19,3.63,2.87,3.63s2.87-1.54,2.87-3.67c0-1.6-.8-3.63-2.83-3.63s-2.91,1.87-2.91,3.67Z"/>
    <path d="M70.2,326.5c0-.98-.02-1.78-.08-2.56h1.5l.08,1.52h.06c.53-.9,1.41-1.74,2.97-1.74,1.29,0,2.26.78,2.67,1.89h.04c.29-.53.66-.94,1.05-1.23.57-.43,1.19-.66,2.09-.66,1.25,0,3.1.82,3.1,4.1v5.56h-1.68v-5.35c0-1.81-.66-2.91-2.05-2.91-.98,0-1.74.72-2.03,1.56-.08.23-.14.55-.14.86v5.83h-1.68v-5.66c0-1.5-.66-2.6-1.97-2.6-1.07,0-1.85.86-2.13,1.72-.1.25-.14.55-.14.84v5.7h-1.68v-6.89Z"/>
    <path d="M21.27,356.38c-.62.31-1.87.62-3.47.62-3.71,0-6.5-2.34-6.5-6.66s2.79-6.91,6.87-6.91c1.64,0,2.67.35,3.12.58l-.41,1.39c-.64-.31-1.56-.55-2.65-.55-3.08,0-5.13,1.97-5.13,5.42,0,3.22,1.85,5.29,5.05,5.29,1.03,0,2.09-.21,2.77-.55l.35,1.35Z"/>
    <path d="M34.82,350.1c0,4.53-2.75,6.93-6.11,6.93s-5.91-2.69-5.91-6.67c0-4.18,2.6-6.91,6.11-6.91s5.91,2.75,5.91,6.65ZM24.61,350.31c0,2.81,1.52,5.33,4.2,5.33s4.22-2.48,4.22-5.46c0-2.62-1.37-5.35-4.2-5.35s-4.21,2.6-4.21,5.48Z"/>
    <path d="M37.61,356.81v-13.15h1.85l4.22,6.65c.98,1.54,1.74,2.93,2.36,4.27l.04-.02c-.16-1.76-.2-3.36-.2-5.41v-5.5h1.6v13.15h-1.72l-4.18-6.67c-.92-1.46-1.79-2.97-2.46-4.39l-.06.02c.1,1.66.14,3.24.14,5.43v5.62h-1.6Z"/>
    <path d="M51.04,356.81v-13.15h1.85l4.21,6.65c.98,1.54,1.74,2.93,2.36,4.27l.04-.02c-.16-1.76-.2-3.36-.2-5.41v-5.5h1.6v13.15h-1.72l-4.18-6.67c-.92-1.46-1.8-2.97-2.46-4.39l-.06.02c.1,1.66.14,3.24.14,5.43v5.62h-1.6Z"/>
    <path d="M72.09,344.13v1.13l-5.52,11.55h-1.78l5.5-11.22v-.04h-6.21v-1.42h8Z"/>
  </g>
  <g>
    <path d="M13.29,182.56c-.11-2.06-.24-4.54-.22-6.38h-.07c-.5,1.73-1.12,3.57-1.86,5.61l-2.61,7.17h-1.45l-2.39-7.03c-.7-2.08-1.29-3.99-1.71-5.74h-.04c-.04,1.84-.15,4.32-.29,6.53l-.39,6.33H.45l1.03-14.77h2.43l2.52,7.14c.61,1.82,1.12,3.44,1.49,4.97h.07c.37-1.49.9-3.11,1.56-4.97l2.63-7.14h2.43l.92,14.77h-1.86l-.37-6.49Z"/>
    <path d="M28.78,183.65c0,3.92-2.72,5.63-5.28,5.63-2.87,0-5.08-2.1-5.08-5.46,0-3.55,2.32-5.63,5.26-5.63s5.11,2.21,5.11,5.46ZM20.37,183.76c0,2.32,1.34,4.08,3.22,4.08s3.22-1.73,3.22-4.12c0-1.8-.9-4.08-3.18-4.08s-3.26,2.1-3.26,4.12Z"/>
    <path d="M34.19,175.39v3.05h2.76v1.47h-2.76v5.72c0,1.31.37,2.06,1.45,2.06.5,0,.88-.07,1.12-.13l.09,1.45c-.37.15-.96.26-1.71.26-.9,0-1.62-.29-2.08-.81-.55-.57-.75-1.51-.75-2.76v-5.78h-1.64v-1.47h1.64v-2.54l1.88-.5Z"/>
    <path d="M49.25,183.65c0,3.92-2.72,5.63-5.28,5.63-2.87,0-5.08-2.1-5.08-5.46,0-3.55,2.32-5.63,5.26-5.63s5.11,2.21,5.11,5.46ZM40.83,183.76c0,2.32,1.34,4.08,3.22,4.08s3.22-1.73,3.22-4.12c0-1.8-.9-4.08-3.18-4.08s-3.26,2.1-3.26,4.12Z"/>
    <path d="M52.34,181.75c0-1.25-.02-2.32-.09-3.31h1.69l.07,2.08h.09c.48-1.42,1.64-2.32,2.94-2.32.22,0,.37.02.55.07v1.82c-.2-.04-.39-.07-.66-.07-1.36,0-2.32,1.03-2.59,2.48-.04.26-.09.57-.09.9v5.65h-1.91v-7.3Z"/>
    <path d="M65.53,174.47c.83-.18,2.15-.31,3.48-.31,1.91,0,3.13.33,4.05,1.07.77.57,1.23,1.45,1.23,2.61,0,1.42-.94,2.67-2.5,3.24v.04c1.4.35,3.05,1.51,3.05,3.7,0,1.27-.5,2.23-1.25,2.96-1.03.94-2.69,1.38-5.1,1.38-1.31,0-2.32-.09-2.96-.18v-14.53ZM67.44,180.52h1.73c2.02,0,3.2-1.05,3.2-2.48,0-1.73-1.31-2.41-3.24-2.41-.88,0-1.38.07-1.69.13v4.75ZM67.44,187.6c.37.07.92.09,1.6.09,1.97,0,3.79-.72,3.79-2.87,0-2.02-1.73-2.85-3.81-2.85h-1.58v5.63Z"/>
    <path d="M32.14,200.57h1.91v9.88c0,3.92-1.93,5.13-4.47,5.13-.7,0-1.56-.15-2.04-.35l.28-1.56c.39.15.96.28,1.6.28,1.71,0,2.72-.77,2.72-3.66v-9.73Z"/>
    <path d="M37.67,213.13c.55.35,1.82.9,3.16.9,2.48,0,3.24-1.58,3.22-2.76-.02-1.99-1.82-2.85-3.68-2.85h-1.07v-1.45h1.07c1.4,0,3.18-.72,3.18-2.41,0-1.14-.72-2.15-2.5-2.15-1.14,0-2.23.5-2.85.94l-.5-1.4c.74-.55,2.19-1.1,3.72-1.1,2.8,0,4.08,1.67,4.08,3.4,0,1.47-.88,2.72-2.63,3.35v.04c1.75.35,3.18,1.67,3.18,3.66,0,2.28-1.77,4.27-5.19,4.27-1.6,0-3-.5-3.7-.96l.53-1.49Z"/>
  </g>
  <g>
    <path d="M239.83,105.71c-.52.26-1.55.52-2.88.52-3.07,0-5.39-1.94-5.39-5.52s2.31-5.73,5.69-5.73c1.36,0,2.22.29,2.59.49l-.34,1.15c-.53-.26-1.29-.45-2.2-.45-2.56,0-4.25,1.63-4.25,4.5,0,2.67,1.54,4.38,4.19,4.38.86,0,1.73-.18,2.3-.45l.29,1.12Z"/>
    <path d="M251.06,100.5c0,3.75-2.28,5.74-5.06,5.74s-4.9-2.23-4.9-5.53c0-3.46,2.15-5.73,5.06-5.73s4.9,2.28,4.9,5.52ZM242.6,100.68c0,2.33,1.26,4.42,3.48,4.42s3.49-2.05,3.49-4.53c0-2.17-1.13-4.43-3.48-4.43s-3.49,2.15-3.49,4.54Z"/>
    <path d="M253.37,106.06v-10.9h1.54l3.49,5.52c.81,1.28,1.44,2.43,1.96,3.54l.03-.02c-.13-1.46-.16-2.78-.16-4.48v-4.56h1.33v10.9h-1.42l-3.46-5.53c-.76-1.21-1.49-2.46-2.04-3.64l-.05.02c.08,1.38.11,2.69.11,4.5v4.66h-1.33Z"/>
    <path d="M264.49,106.06v-10.9h1.54l3.49,5.52c.81,1.28,1.44,2.43,1.96,3.54l.03-.02c-.13-1.46-.16-2.78-.16-4.48v-4.56h1.33v10.9h-1.42l-3.46-5.53c-.76-1.21-1.49-2.46-2.04-3.64l-.05.02c.08,1.38.11,2.69.11,4.5v4.66h-1.33Z"/>
    <path d="M274.99,103.4c0-1.33.79-2.26,2.09-2.81l-.02-.05c-1.16-.55-1.67-1.46-1.67-2.36,0-1.67,1.41-2.8,3.25-2.8,2.04,0,3.06,1.28,3.06,2.59,0,.89-.44,1.84-1.73,2.46v.05c1.31.52,2.12,1.44,2.12,2.72,0,1.83-1.57,3.06-3.57,3.06-2.2,0-3.53-1.31-3.53-2.85ZM280.65,103.33c0-1.28-.89-1.89-2.31-2.3-1.23.36-1.89,1.16-1.89,2.17-.05,1.07.76,2.01,2.1,2.01s2.1-.79,2.1-1.88ZM276.74,98.07c0,1.05.79,1.62,2.01,1.94.91-.31,1.6-.95,1.6-1.91,0-.84-.5-1.71-1.78-1.71-1.18,0-1.83.78-1.83,1.68Z"/>
  </g>
  <g>
    <path d="M388.91.15v9.49h-1.23V.15h1.23Z"/>
    <path d="M391.04,9.65v-.76l.97-.94c2.34-2.23,3.39-3.41,3.41-4.79,0-.93-.45-1.79-1.82-1.79-.83,0-1.52.42-1.94.77l-.39-.87c.63-.54,1.54-.93,2.59-.93,1.97,0,2.8,1.35,2.8,2.66,0,1.69-1.23,3.06-3.15,4.92l-.73.68v.03h4.11v1.03h-5.84Z"/>
    <path d="M405.75,9.34c-.45.23-1.35.45-2.51.45-2.68,0-4.69-1.69-4.69-4.8s2.01-4.99,4.96-4.99c1.18,0,1.93.25,2.25.42l-.3,1c-.46-.23-1.13-.39-1.92-.39-2.23,0-3.7,1.42-3.7,3.92,0,2.32,1.34,3.82,3.65,3.82.75,0,1.51-.15,2-.39l.25.97Z"/>
    <path d="M413.95,5.38v.92h-3.48v-.92h3.48Z"/>
    <path d="M425.9,9.34c-.45.23-1.35.45-2.51.45-2.68,0-4.69-1.69-4.69-4.8s2.01-4.99,4.96-4.99c1.18,0,1.93.25,2.25.42l-.3,1c-.46-.23-1.13-.39-1.92-.39-2.23,0-3.7,1.42-3.7,3.92,0,2.32,1.34,3.82,3.65,3.82.75,0,1.51-.15,2-.39l.25.97Z"/>
    <path d="M435.67,4.8c0,3.27-1.99,5-4.41,5s-4.27-1.94-4.27-4.82c0-3.01,1.87-4.99,4.41-4.99s4.27,1.99,4.27,4.8ZM428.31,4.96c0,2.03,1.1,3.84,3.03,3.84s3.04-1.79,3.04-3.94c0-1.89-.99-3.86-3.03-3.86s-3.04,1.87-3.04,3.96Z"/>
    <path d="M437.69,9.65V.15h1.34l3.04,4.8c.7,1.11,1.25,2.11,1.7,3.08h.03c-.11-1.28-.14-2.44-.14-3.92V.15h1.15v9.49h-1.24l-3.01-4.82c-.66-1.06-1.3-2.14-1.77-3.17h-.04c.07,1.21.1,2.35.1,3.93v4.06h-1.15Z"/>
    <path d="M447.37,9.65V.15h1.34l3.04,4.8c.7,1.11,1.25,2.11,1.7,3.08h.03c-.11-1.28-.14-2.44-.14-3.92V.15h1.15v9.49h-1.24l-3.01-4.82c-.66-1.06-1.3-2.14-1.77-3.17h-.04c.07,1.21.1,2.35.1,3.93v4.06h-1.15Z"/>
    <path d="M457.34,8.77c.27.03.58,0,1-.04.72-.1,1.39-.39,1.92-.89.61-.55,1.04-1.35,1.21-2.44h-.04c-.51.62-1.24.99-2.15.99-1.65,0-2.7-1.24-2.7-2.8,0-1.73,1.25-3.25,3.13-3.25s3.03,1.52,3.03,3.86c0,2.01-.68,3.42-1.58,4.3-.7.69-1.68,1.11-2.66,1.23-.45.07-.84.08-1.14.07v-1.01ZM457.79,3.51c0,1.14.69,1.94,1.76,1.94.83,0,1.48-.41,1.8-.96.07-.11.11-.25.11-.45,0-1.56-.58-2.76-1.87-2.76-1.06,0-1.8.93-1.8,2.23Z"/>
  </g>
</svg>